<svg width="50" height="51" viewBox="0 0 50 51" fill="none" xmlns="http://www.w3.org/2000/svg">
<g clip-path="url(#clip0_309_10097)">
<path d="M25 0.5C18.3711 0.5 12.0078 3.13555 7.32422 7.82227C2.63583 12.5109 0.0013416 18.8695 0 25.5C0 32.1277 2.63672 38.491 7.32422 43.1777C12.0078 47.8645 18.3711 50.5 25 50.5C31.6289 50.5 37.9922 47.8645 42.6758 43.1777C47.3633 38.491 50 32.1277 50 25.5C50 18.8723 47.3633 12.509 42.6758 7.82227C37.9922 3.13555 31.6289 0.5 25 0.5Z" fill="#24A1DE"/>
<path d="M11.3192 25.2358C18.6083 22.0608 23.4676 19.9676 25.8973 18.9562C32.8426 16.0683 34.284 15.5667 35.2254 15.5497C35.4325 15.5464 35.8934 15.5976 36.1942 15.8407C36.4442 16.0458 36.5145 16.3231 36.5497 16.5179C36.5809 16.7124 36.6239 17.1558 36.5887 17.5019C36.2137 21.455 34.5848 31.048 33.7567 35.4757C33.409 37.3491 32.7176 37.9772 32.0497 38.0386C30.5965 38.1722 29.495 37.0792 28.0887 36.1577C25.8895 34.7151 24.6473 33.8175 22.5106 32.4101C20.0418 30.7835 21.6434 29.8894 23.0497 28.4284C23.4168 28.046 29.8153 22.2276 29.9364 21.6999C29.952 21.6339 29.9676 21.3878 29.8192 21.2581C29.6747 21.128 29.4598 21.1726 29.3036 21.2077C29.0809 21.2577 25.5692 23.5812 18.7567 28.1776C17.7606 28.8628 16.8583 29.1968 16.0458 29.1792C15.1551 29.1601 13.4364 28.6745 12.159 28.2597C10.5965 27.7507 9.35044 27.4815 9.45981 26.6171C9.5145 26.1671 10.1356 25.7065 11.3192 25.2358Z" fill="white"/>
</g>
<defs>
<clipPath id="clip0_309_10097">
<rect width="50" height="50" fill="white" transform="translate(0 0.5)"/>
</clipPath>
</defs>
</svg>
