<svg width="50" height="51" viewBox="0 0 50 51" fill="none" xmlns="http://www.w3.org/2000/svg">
<rect y="0.5" width="50" height="50" rx="25" fill="white"/>
<path d="M46.2515 12.0843C38.7838 0.49526 23.4912 -2.93854 11.6645 4.25098C0.12356 11.4405 -3.5924 27.1072 3.87525 38.6605L4.48267 39.5905L1.98154 48.9619L11.3429 46.4581L12.2719 47.0662C16.3094 49.2481 20.7043 50.5 25.0634 50.5C29.744 50.5 34.4247 49.2481 38.4623 46.7443C50.0032 39.2328 53.4333 23.888 46.2515 12.0128V12.0843ZM39.7128 36.1925C38.4622 38.0525 36.8901 39.3044 34.7106 39.6263C33.46 39.6263 31.8879 40.2344 25.6708 37.7663C20.3827 35.2625 15.9878 31.1849 12.8793 26.4992C11.0213 24.3173 10.0566 21.4915 9.77076 18.6658C9.77076 16.162 10.6998 13.9801 12.2719 12.4063C12.8793 11.7982 13.5225 11.4763 14.1299 11.4763H15.702C16.3094 11.4763 16.9526 11.4763 17.2741 12.7282C17.8816 14.302 19.4537 18.0577 19.4537 18.3796C19.7753 18.7016 19.6323 21.0981 18.2031 22.4573C17.4171 23.3515 17.2741 23.3873 17.5957 24.0311C18.8463 25.8911 20.4184 27.7868 21.9548 29.3607C23.8128 30.9345 25.7065 32.1864 27.8861 33.1164C28.4935 33.4383 29.1366 33.4383 29.4582 32.7945C29.7798 32.1864 31.3162 30.6126 31.9593 29.9687C32.5667 29.3607 32.8883 29.3607 33.5315 29.6468L38.5337 32.1506C39.1411 32.4725 39.7843 32.7587 40.1058 33.0806C40.4274 34.0106 40.4274 35.2625 39.7843 36.1925H39.7128Z" fill="#34D36A"/>
</svg>
