<svg width="80" height="78" viewBox="0 0 80 78" fill="none" xmlns="http://www.w3.org/2000/svg">
<path d="M26.5998 1.50237C28.6825 3.36581 29.5777 4.42542 30.1988 5.64945C30.7652 6.80041 30.7834 6.92829 30.893 9.9427C31.0575 14.0532 31.6969 16.2638 33.4873 18.9494C35.5334 22.0186 39.5709 25.2157 42.6949 26.2022L43.6449 26.5128L43.791 27.5541C43.992 29.0704 43.9372 33.8387 43.6814 35.629C43.5535 36.4877 43.0237 39.0271 42.4757 41.2925C41.9459 43.5578 41.3978 45.8963 41.2882 46.4809L41.0689 47.5588L39.8266 45.0559L38.5843 42.5713L38.8401 41.7127C39.1689 40.6165 39.1689 38.0771 38.8218 36.4694C38.018 32.6877 35.2046 29.2166 31.1854 27.0426C29.1392 25.9282 27.4219 25.5445 24.5719 25.5445C20.3152 25.5445 16.0951 26.7137 11.0163 29.2714C9.37205 30.0935 8.0384 30.8243 8.0384 30.8791C8.0384 30.9522 9.06147 31.2079 10.3403 31.482C12.9528 32.03 14.597 32.7425 15.6566 33.7839C16.0585 34.1675 16.8806 35.3367 17.447 36.3781C18.3056 37.9127 18.8537 38.6069 20.2787 40.0136C22.9825 42.6992 25.8142 44.0511 29.9979 44.6905C32.1902 45.0376 35.4786 44.9463 36.6661 44.5078L37.4334 44.2338L38.4199 46.0972C39.6622 48.4357 40.4295 50.3357 40.4478 51.1578C40.4661 51.9251 40.4478 51.9251 38.4565 51.1943C36.319 50.4087 34.6199 50.1895 31.569 50.2991C28.7373 50.3905 27.5133 50.6462 24.9373 51.7059C23.8594 52.1443 23.0921 52.327 21.9777 52.3818L20.4614 52.4914V51.7241V50.9751H18.2691H16.0768V50.2443V49.5136H8.0384H0V50.2443V50.9751H7.30764H14.6153V63.3981V75.8211H7.30764H0V76.5518V77.2826H8.0384H16.0768V75.0903V72.898H18.2691H20.4614V72.1672V71.4365H23.22H25.9604L33.3959 73.5192C37.4882 74.6701 42.0372 75.9489 43.4987 76.3509C46.4035 77.173 47.8833 77.2826 49.692 76.8624C50.24 76.7163 54.3688 74.9076 58.8448 72.8067L67.0111 69.025L73.186 63.4894C76.6571 60.3837 79.5254 57.6798 79.6898 57.3327C80.7677 55.2866 78.886 51.651 76.3648 50.902C75.0129 50.5001 73.5697 50.5366 72.1447 51.0299C70.2812 51.6693 69.587 52.126 63.9053 56.4741C63.1745 57.0404 62.2976 57.6433 61.9688 57.8077C61.4755 58.0635 58.8448 58.8125 58.4246 58.8308C58.3698 58.8308 58.2602 58.5568 58.1871 58.2279C57.7669 56.2914 56.0679 54.0808 54.3871 53.3501C52.6333 52.5645 51.6102 52.4366 47.4631 52.4366C42.9324 52.4366 43.2978 52.601 43.6814 50.7559C44.3574 47.3578 46.166 43.7405 47.792 42.5165C48.1756 42.2242 48.267 42.2425 49.3631 42.754C51.3179 43.6674 53.5833 44.0876 56.7256 44.0876C58.9727 44.1059 59.7582 44.0328 61.1101 43.704C64.2707 42.9001 66.8101 41.4021 69.0572 38.9358C71.6879 36.0858 72.4004 35.7935 76.7302 35.6473L79.7446 35.5377L77.6437 33.7291C70.4274 27.5541 63.1563 24.9782 57.6755 26.6772C51.4092 28.6137 47.3535 33.3271 47.2439 38.7896L47.2074 40.379L46.1477 41.6578C44.942 43.1194 43.8093 44.928 43.2978 46.1886C42.7497 47.5588 42.8593 46.8097 43.9372 42.4069C45.4901 36.031 45.8737 32.505 45.5083 28.4128C45.3074 26.2387 45.3074 26.2205 45.7276 25.9464C47.3535 24.9051 49.1256 21.8176 49.6189 19.1869C49.966 17.3782 49.8746 14.8023 49.4179 13.0667C49.2535 12.4638 48.6871 11.0571 48.1391 9.92442C46.641 6.83694 44.7776 5.01003 41.4709 3.36581C37.6892 1.46583 32.5007 0.369682 27.3854 0.369682H25.3392L26.5998 1.50237ZM31.6969 2.28794C34.419 2.58025 38.493 3.71293 40.6487 4.79081C42.9324 5.94176 44.8324 7.56771 45.9651 9.33981C47.2622 11.4042 48.2304 14.5465 48.2304 16.7753C48.2304 18.858 47.3352 21.6897 46.2574 23.0234L45.9102 23.4618L45.9833 22.5301C46.1295 21.1599 45.7276 17.634 45.216 15.5878C44.3208 12.0254 42.2199 8.68212 39.717 6.80041C38.3834 5.81387 36.2459 4.62639 36.0632 4.79081C36.0084 4.86388 36.3555 5.17446 36.8488 5.5033C39.1872 7.11098 41.5987 10.1254 42.7314 12.8657C43.8824 15.6244 44.4487 19.4426 44.266 23.0234C44.1381 25.1974 44.1381 25.1974 42.1468 24.1926C40.0824 23.1513 38.3286 21.8541 36.6844 20.1186C34.894 18.2369 34.1267 17.0128 33.2863 14.6379C32.6834 12.9936 32.6469 12.7013 32.519 9.68693C32.3546 5.77734 32.0988 4.95523 30.345 2.7812C29.7421 2.03217 29.7421 1.99564 30.1623 2.08698C30.3998 2.14178 31.094 2.23313 31.6969 2.28794ZM26.3806 27.2435C28.244 27.4993 29.5777 27.9743 31.1305 28.9426C32.9575 30.0752 34.5469 31.5916 35.5882 33.1444C36.867 35.0627 37.2872 36.3781 37.3968 38.8261L37.4699 40.8357L36.7209 39.4656C33.944 34.4598 29.9613 31.0252 25.5402 29.7829C24.0239 29.3627 21.2287 29.1252 20.1691 29.3262C19.5114 29.4541 19.6027 29.4906 21.3931 29.8012C26.8738 30.7329 30.7834 33.4185 34.0901 38.4608C35.4969 40.6348 36.4834 42.6992 36.2276 42.955C35.8988 43.2838 32.7565 43.3751 30.7469 43.1194C27.294 42.6992 24.5537 41.5482 22.2335 39.5569C20.5893 38.1684 19.9316 37.3646 19.1643 35.9214C17.6114 32.9983 16.698 32.0483 14.2499 30.8974L12.7518 30.2031L14.1951 29.6002C19.0547 27.5724 23.1287 26.7868 26.3806 27.2435ZM65.1293 28.3945C67.2486 28.9974 71.4322 31.0983 73.5879 32.6512L75.3052 33.8752L73.862 34.1127C71.5053 34.5146 70.0985 35.3185 68.1985 37.3829C66.4447 39.3011 65.1476 40.2877 63.1015 41.2194C61.0005 42.1877 59.6486 42.4617 56.7256 42.4617C54.5515 42.4617 53.8573 42.3703 52.1217 41.9502C50.9891 41.6761 49.8746 41.2925 49.6554 41.1098L49.2535 40.7992L50.4958 39.3194C53.565 35.6108 56.9631 33.2723 60.9457 32.03C62.4438 31.5733 62.8274 31.5368 65.714 31.5368C68.5274 31.5185 68.7832 31.5002 68.1803 31.281C67.8149 31.1531 66.7736 30.9156 65.8601 30.7512C60.5986 29.8377 55.0083 32.0483 50.4227 36.8531C48.6323 38.7165 48.5775 38.6983 49.2718 36.4512C50.24 33.2358 52.5785 30.7147 56.0131 29.107C59.1736 27.6637 61.7678 27.4628 65.1293 28.3945ZM35.9536 52.1809C36.7209 52.327 38.0363 52.7837 38.8584 53.1856L40.3564 53.8981H44.6131C51.2083 53.8981 53.1265 54.227 54.7708 55.6337C55.8486 56.5654 56.6525 58.301 56.7804 59.9269L56.8717 61.2058H47.4266H37.9997V61.9365V62.6673H48.2304H58.4428L58.5707 61.5894L58.6803 60.5298L60.5255 60.0366C62.7726 59.452 63.1563 59.2327 66.6091 56.5472C70.9572 53.1491 72.9302 52.1443 74.812 52.2905C75.9629 52.3818 77.0956 53.0578 77.6619 53.953C78.21 54.8481 78.4658 55.8529 78.2648 56.3462C78.1735 56.5837 75.3966 59.2145 72.0899 62.174L66.0611 67.5817L58.388 71.1807C54.1496 73.1538 50.2583 74.9259 49.7468 75.1086C47.8468 75.8028 47.3535 75.7115 36.7026 72.7153L26.9469 69.975H23.7133H20.4614V61.9365V53.8981H22.2152C23.8229 53.8981 24.1152 53.8433 25.8508 53.1674C26.8921 52.7472 28.2623 52.3087 28.9017 52.1626C30.5094 51.8155 34.218 51.8155 35.9536 52.1809ZM18.9999 61.9365V71.4365H17.5383H16.0768V61.9365V52.4366H17.5383H18.9999V61.9365Z" fill="#222222"/>
</svg>
