<svg width="81" height="81" viewBox="0 0 81 81" fill="none" xmlns="http://www.w3.org/2000/svg">
<path d="M34.018 0.374626C24.0668 1.87564 14.9124 7.15699 8.68601 14.9771C5.23923 19.2948 2.49663 24.8356 1.10681 30.2467C-0.0235887 34.6941 -0.320086 41.1244 0.365564 45.8684C2.29279 58.9884 10.3723 70.0885 22.2322 75.9628C27.9398 78.7795 33.462 80.0396 39.985 80.0582C46.7117 80.0582 52.3452 78.7425 58.1083 75.8331C68.5599 70.5332 76.0649 61.175 78.9743 49.8155C80.4383 44.0153 80.4383 36.0469 78.9743 30.2467C76.8988 22.1486 72.2105 14.625 65.984 9.41778C61.3513 5.52626 55.6252 2.57982 49.825 1.09734C45.4146 -0.0145264 38.6693 -0.329552 34.018 0.374626ZM44.488 1.87564C51.4001 2.63541 58.5716 5.65598 64.1309 10.1405C65.7987 11.4933 68.7452 14.4582 70.0794 16.126C74.3045 21.4074 77.1583 28.0415 78.1219 34.8424C78.474 37.3811 78.474 42.681 78.1219 45.2198C76.3058 57.895 68.5043 68.7172 56.9965 74.4618C49.1022 78.4089 39.707 79.4652 31.053 77.3897C25.7531 76.1111 20.2309 73.387 15.9502 69.9217C14.2824 68.5689 11.3359 65.6039 10.0017 63.9361C5.79516 58.6733 2.92285 52.0021 1.95923 45.2198C1.60714 42.681 1.60714 37.3811 1.95923 34.8424C3.75675 22.2598 11.5213 11.4377 22.8993 5.67451C29.4964 2.33892 36.9088 1.04174 44.488 1.87564Z" fill="#555555"/>
<path d="M35.7784 4.58119C31.1086 5.17419 25.7346 6.99023 21.9357 9.26955C12.5405 14.903 6.29551 24.2056 4.7389 34.8609C4.36828 37.4553 4.36828 42.6069 4.7389 45.2013C7.03675 60.8785 19.2487 73.0164 35.0742 75.3513C38.243 75.8146 44.1359 75.6293 47.2121 74.9807C54.2539 73.4797 60.2209 70.2553 65.2428 65.2333C70.2832 60.1929 73.4706 54.2815 75.0087 47.0914C75.4905 44.9048 75.5275 44.4786 75.5275 40.0311C75.5275 35.5836 75.4905 35.1574 75.0087 32.9708C73.4706 25.7993 70.2832 19.8508 65.2428 14.8289C60.2394 9.80695 54.2539 6.58255 47.2121 5.08154C45.2107 4.65532 44.4509 4.59972 40.6891 4.54414C38.3542 4.50707 36.1305 4.5256 35.7784 4.58119ZM44.2656 6.32311C47.8421 6.7308 51.326 7.78706 54.9581 9.54752C64.5015 14.1988 71.0615 22.7416 73.4335 33.5452C73.8041 35.2686 73.8412 35.9913 73.8412 40.0311C73.8412 44.0709 73.8041 44.7936 73.4335 46.517C72.0807 52.6878 69.5049 57.8394 65.4281 62.5834C61.2401 67.4385 54.8283 71.3301 48.2313 73.0164C43.0797 74.3136 36.6679 74.295 31.5719 72.9237C18.7669 69.4955 9.53845 59.7111 6.6476 46.517C6.27698 44.7936 6.23992 44.0709 6.23992 40.0311C6.23992 35.9913 6.27698 35.2686 6.6476 33.5452C8.98251 22.8713 15.3757 14.4768 24.7895 9.69576C30.775 6.6752 37.335 5.52628 44.2656 6.32311Z" fill="#555555"/>
<path d="M35.7421 7.56467C34.9453 7.6388 34.9453 7.6388 35.1491 9.62162C35.2788 10.7335 35.2788 10.752 35.8533 10.752C36.854 10.752 36.9466 10.5852 36.7984 9.0101C36.7242 8.23179 36.613 7.5832 36.5389 7.54614C36.4833 7.52761 36.1127 7.52761 35.7421 7.56467Z" fill="#555555"/>
<path d="M39.3008 11.1226V14.8289H40.042H40.7833V11.1226V7.41644H40.042H39.3008V11.1226Z" fill="#555555"/>
<path d="M43.266 9.02864C43.0992 10.5297 43.0992 10.5853 43.4884 10.6779C43.7108 10.7335 44.0999 10.752 44.3223 10.715C44.73 10.6594 44.7856 10.5297 44.9338 9.21396C45.0265 8.41712 45.0635 7.75 45.0265 7.71294C44.9894 7.67588 44.6188 7.60175 44.1926 7.56469L43.4328 7.45351L43.266 9.02864Z" fill="#555555"/>
<path d="M31.6083 8.39855C31.2007 8.4912 30.8486 8.60239 30.8115 8.62092C30.7559 8.65798 31.5157 11.5488 31.6083 11.6415C31.6454 11.6785 32.016 11.6044 32.4422 11.4932C33.3132 11.2523 33.2947 11.2894 32.6646 9.25098L32.3496 8.23177L31.6083 8.39855Z" fill="#555555"/>
<path d="M47.2869 9.65871C47.0646 10.4926 46.8978 11.1783 46.9349 11.2153C47.0275 11.2894 48.4544 11.6786 48.4915 11.623C48.5285 11.5859 49.3068 8.75069 49.3068 8.6395C49.3068 8.60244 49.0845 8.50979 48.8065 8.45419C48.51 8.38007 48.1579 8.28741 47.9911 8.23182C47.7688 8.17623 47.602 8.47272 47.2869 9.65871Z" fill="#555555"/>
<path d="M27.587 9.7699C27.1978 9.91814 26.8828 10.1405 26.8828 10.2517C26.8828 10.6038 27.902 12.9758 28.0503 12.9758C28.1244 12.9758 28.495 12.8461 28.8471 12.6978C29.5883 12.3828 29.5883 12.3642 28.7544 10.5482L28.2726 9.49193L27.587 9.7699Z" fill="#555555"/>
<path d="M51.2714 10.6964C50.9749 11.4006 50.7155 12.0492 50.6599 12.1789C50.5858 12.3642 51.6606 12.9758 52.0868 12.9758C52.1609 12.9758 52.4759 12.3272 52.7724 11.5303L53.3469 10.1035L52.6613 9.78843C52.2906 9.62165 51.9385 9.4734 51.8829 9.4734C51.8274 9.45487 51.5494 10.0108 51.2714 10.6964Z" fill="#555555"/>
<path d="M23.6419 11.6971C23.3454 11.8824 23.0859 12.1048 23.0859 12.1975C23.0859 12.2716 23.9013 13.7726 24.902 15.5331L26.7366 18.7204L27.2184 18.4424C27.4963 18.2942 27.8299 18.1089 27.9781 17.9977C28.182 17.868 27.8484 17.1638 26.3474 14.5694C25.2911 12.7719 24.3831 11.308 24.3275 11.3265C24.2534 11.3265 23.9569 11.4933 23.6419 11.6971Z" fill="#555555"/>
<path d="M53.7531 14.5694C52.2706 17.1267 51.9185 17.868 52.1038 18.0162C52.2521 18.1089 52.5857 18.2942 52.8636 18.4424L53.3454 18.7204L55.2171 15.4775C56.2548 13.6985 57.0887 12.216 57.0887 12.1604C57.0887 12.0677 55.8842 11.308 55.7359 11.308C55.6803 11.308 54.7908 12.7719 53.7531 14.5694Z" fill="#555555"/>
<path d="M20.1952 14.0135C19.8431 14.273 19.5837 14.5695 19.6207 14.6806C19.6948 14.9215 21.307 17.0526 21.4368 17.0526C21.6406 17.0526 22.6227 16.2187 22.6227 16.0519C22.6227 15.9407 22.2151 15.3292 21.7333 14.6992L20.8252 13.5502L20.1952 14.0135Z" fill="#555555"/>
<path d="M58.3504 14.7362C57.8501 15.3663 57.4609 15.9407 57.4609 16.0149C57.4609 16.1817 58.4246 17.0341 58.6099 17.0526C58.684 17.0526 59.1658 16.4967 59.6847 15.811L60.6297 14.5695L60.2035 14.2359C59.2955 13.5132 59.277 13.5132 58.3504 14.7362Z" fill="#555555"/>
<path d="M16.9133 16.9229L16.3203 17.5344L17.4322 18.6277L18.544 19.7211L19.137 19.1281L19.7486 18.5351L18.6367 17.4232L17.5063 16.3114L16.9133 16.9229Z" fill="#555555"/>
<path d="M61.4449 17.4232L60.3516 18.535L60.9446 19.128L61.5376 19.7396L62.6494 18.6277L63.7613 17.4973L63.1498 16.9043L62.5382 16.3113L61.4449 17.4232Z" fill="#555555"/>
<path d="M14.0394 20.1102L13.5391 20.7403L14.688 21.6668C15.3366 22.1857 15.9481 22.5934 16.0408 22.5934C16.2817 22.6119 17.06 21.4815 16.9488 21.2962C16.8561 21.1294 14.725 19.4617 14.6139 19.4617C14.5768 19.4617 14.3359 19.7582 14.0394 20.1102Z" fill="#555555"/>
<path d="M64.187 20.3511C63.5569 20.833 63.0381 21.2962 63.0195 21.3704C63.0195 21.5742 63.7978 22.6119 63.9831 22.6119C64.2055 22.6119 66.3551 20.9071 66.3551 20.7218C66.3551 20.5179 65.5768 19.4617 65.4471 19.4617C65.3915 19.4617 64.817 19.8693 64.187 20.3511Z" fill="#555555"/>
<path d="M51.9202 29.4128L41.8393 37.1217L40.153 37.1402L38.4667 37.1588L30.1277 31.0991L21.7887 25.0209L21.2884 25.6324C21.0104 25.9475 20.7695 26.2625 20.7695 26.3181C20.7695 26.3737 24.4387 29.3386 28.9232 32.8966L37.0583 39.3825L37.0769 40.2164C37.0954 41.8842 38.2628 42.996 40.0418 42.996C41.8208 42.996 42.84 42.0509 43.0068 40.2164L43.0995 39.1972L53.0136 31.1732C58.4617 26.7628 62.9462 23.0937 62.9647 23.0196C62.9833 22.9454 62.7794 22.6119 62.5015 22.2968L62.0011 21.6853L51.9202 29.4128ZM40.9684 39.1045C41.1722 39.3084 41.339 39.716 41.339 40.0311C41.339 40.3461 41.1722 40.7538 40.9684 40.9576C40.7645 41.1615 40.3569 41.3282 40.0418 41.3282C39.7268 41.3282 39.3191 41.1615 39.1153 40.9576C38.9114 40.7538 38.7447 40.3461 38.7447 40.0311C38.7447 39.716 38.9114 39.3084 39.1153 39.1045C39.3191 38.9007 39.7268 38.7339 40.0418 38.7339C40.3569 38.7339 40.7645 38.9007 40.9684 39.1045Z" fill="#555555"/>
<path d="M11.6897 23.6496C11.4859 24.0388 11.3747 24.3909 11.4488 24.465C11.6527 24.6688 17.7494 28.1712 17.8791 28.1712C17.9347 28.1712 18.1571 27.8562 18.3424 27.4485L18.713 26.7258L15.4886 24.8541C13.7096 23.8349 12.2086 22.9825 12.1715 22.9825C12.1345 22.9825 11.9121 23.279 11.6897 23.6496Z" fill="#555555"/>
<path d="M64.5574 24.8727L61.3516 26.7258L61.7222 27.4485C61.926 27.8376 62.1484 28.1712 62.204 28.1712C62.3337 28.1712 68.4304 24.6688 68.6343 24.465C68.7825 24.3353 68.0783 22.964 67.8745 23.001C67.8004 23.001 66.2994 23.8349 64.5574 24.8727Z" fill="#555555"/>
<path d="M10.0179 26.9481C10.0179 26.9852 9.88815 27.3002 9.75843 27.6523L9.48047 28.3009L10.722 28.8198C11.4077 29.0977 12.0748 29.3572 12.2045 29.4128C12.4084 29.5054 12.9828 28.4677 12.9828 28.0229C12.9828 27.9303 12.4269 27.6338 11.7227 27.3743C10.5553 26.9111 10.0179 26.7813 10.0179 26.9481Z" fill="#555555"/>
<path d="M68.2612 27.4114C67.6126 27.6709 67.0938 27.9674 67.0938 28.0415C67.0938 28.1156 67.2235 28.4862 67.3717 28.8383C67.6867 29.5796 67.7238 29.5796 69.5398 28.7457L70.5961 28.2639L70.2996 27.5597C69.9661 26.7443 69.8178 26.7443 68.2612 27.4114Z" fill="#555555"/>
<path d="M8.44439 31.5254C8.37026 31.933 8.35173 32.3037 8.40732 32.3593C8.48145 32.4334 11.0202 33.1746 11.2055 33.1746C11.3167 33.1746 11.7429 31.6736 11.6503 31.5995C11.5761 31.5439 8.83354 30.7656 8.68529 30.7656C8.61117 30.7656 8.51851 31.0991 8.44439 31.5254Z" fill="#555555"/>
<path d="M69.7813 31.1733C69.0771 31.3771 68.4656 31.5624 68.4471 31.581C68.3915 31.618 68.7621 33.0449 68.8547 33.1376C68.8918 33.1746 71.7641 32.4334 71.8568 32.3593C71.9865 32.2481 71.4491 30.7656 71.2823 30.7841C71.1711 30.7841 70.504 30.9694 69.7813 31.1733Z" fill="#555555"/>
<path d="M7.70615 35.0091C7.5579 35.1389 7.59497 36.4731 7.76175 36.5658C7.83587 36.6213 8.54005 36.714 9.33689 36.7881L10.7638 36.9178V36.1025V35.2686L9.28129 35.0833C8.4474 34.9906 7.74322 34.9536 7.70615 35.0091Z" fill="#555555"/>
<path d="M70.7101 35.1574C69.413 35.3056 69.3203 35.3798 69.3203 36.0098C69.3203 36.9734 69.4315 37.029 71.1364 36.8252C72.3409 36.6769 72.6559 36.5843 72.5818 36.3804C72.5077 36.2322 72.4706 35.8616 72.4706 35.5651C72.4706 34.9906 72.3038 34.9536 70.7101 35.1574Z" fill="#555555"/>
<path d="M7.42578 40.0311V40.7723H11.132H14.8382V40.0311V39.2899H11.132H7.42578V40.0311Z" fill="#555555"/>
<path d="M65.2422 40.0311V40.7723H68.9484H72.6546V40.0311V39.2899H68.9484H65.2422V40.0311Z" fill="#555555"/>
<path d="M69.45 43.1257C69.3759 43.1813 69.3203 43.5519 69.3203 43.9411C69.3203 44.5897 69.3759 44.6638 69.9318 44.7565C70.2654 44.8306 70.951 44.8862 71.4514 44.9047L72.3779 44.9418L72.4335 44.182L72.4891 43.4037L71.3217 43.274C70.6731 43.2184 70.0245 43.1257 69.8577 43.0701C69.7095 43.0331 69.5242 43.0516 69.45 43.1257Z" fill="#555555"/>
<path d="M8.44437 43.3481C7.72166 43.4593 7.70312 43.4778 7.70312 44.2005V44.9418L9.09295 44.8862C9.85273 44.8676 10.5754 44.8121 10.6681 44.775C10.7793 44.7379 10.8349 44.3673 10.7978 43.9411L10.7237 43.1813L9.94538 43.1999C9.5377 43.2184 8.85205 43.2925 8.44437 43.3481Z" fill="#555555"/>
<path d="M9.53836 47.2953L8.22266 47.6659L8.40797 48.4442C8.50062 48.8519 8.61181 49.2225 8.64887 49.2596C8.68593 49.3337 11.5397 48.5554 11.6509 48.4627C11.7991 48.3145 11.2803 46.8876 11.0764 46.9061C10.9467 46.9246 10.2611 47.0914 9.53836 47.2953Z" fill="#555555"/>
<path d="M68.6149 47.6659C68.5037 48.0921 68.4296 48.4627 68.4482 48.4812C68.4667 48.4812 69.0226 48.648 69.6897 48.8148C70.3568 49.0001 71.024 49.1669 71.1907 49.2225C71.4131 49.2781 71.5428 49.1113 71.6911 48.5183C71.8023 48.0921 71.8579 47.7029 71.8208 47.6659C71.7652 47.5918 69.1338 46.8876 68.93 46.8876C68.8558 46.8876 68.7261 47.2397 68.6149 47.6659Z" fill="#555555"/>
<path d="M10.874 51.1682C10.1698 51.4647 9.55829 51.7242 9.53976 51.7612C9.42857 51.8724 10.0957 53.1881 10.281 53.1881C10.6331 53.1881 12.9865 52.1874 12.9865 52.0207C12.9865 51.7242 12.4491 50.5938 12.3009 50.6123C12.2268 50.6123 11.5782 50.8717 10.874 51.1682Z" fill="#555555"/>
<path d="M67.3717 51.2609C67.2235 51.6315 67.0938 51.9836 67.0938 52.0577C67.0938 52.1689 69.651 53.2066 69.9105 53.1881C70.0217 53.1881 70.6147 52.0021 70.6147 51.7983C70.6147 51.7242 67.9091 50.5938 67.7609 50.5938C67.7053 50.5938 67.52 50.8903 67.3717 51.2609Z" fill="#555555"/>
<path d="M14.6168 53.707C12.9305 54.6891 11.485 55.5601 11.4109 55.6157C11.3183 55.7269 12.0039 57.0797 12.1522 57.0797C12.1892 57.0797 13.6717 56.2458 15.4692 55.208L18.7122 53.3364L18.3415 52.6137C18.1562 52.2245 17.9153 51.891 17.8412 51.891C17.7671 51.9095 16.3216 52.7249 14.6168 53.707Z" fill="#555555"/>
<path d="M61.7592 52.6137L61.3516 53.3364L64.5945 55.208C66.3735 56.2458 67.856 57.0797 67.9116 57.0797C68.0042 57.0797 68.764 55.8751 68.764 55.7269C68.764 55.6342 62.3893 51.891 62.2225 51.891C62.1855 51.891 61.9816 52.2245 61.7592 52.6137Z" fill="#555555"/>
<path d="M14.7075 58.3397C14.0775 58.8216 13.5586 59.2478 13.5586 59.3034C13.5586 59.359 13.7995 59.674 14.096 60.0261L14.6334 60.6561L15.8379 59.6925C16.8386 58.8957 17.0239 58.6548 16.8757 58.4139C16.5606 57.8579 16.19 57.4503 16.0232 57.4688C15.9306 57.4688 15.3376 57.8579 14.7075 58.3397Z" fill="#555555"/>
<path d="M63.41 58.0247C63.1691 58.3398 63.058 58.6733 63.1321 58.7474C63.2247 58.8401 63.7992 59.2848 64.4107 59.7667L65.5041 60.6191L65.8376 60.1929C66.5974 59.2478 66.5974 59.2293 65.3558 58.3212C64.7072 57.8394 64.0957 57.4503 64.003 57.4503C63.9104 57.4503 63.6324 57.7097 63.41 58.0247Z" fill="#555555"/>
<path d="M17.3766 61.4901L16.3203 62.5649L16.9318 63.1579L17.5434 63.7509L18.6367 62.639L19.73 61.5271L19.1926 60.9712C18.8961 60.6747 18.6182 60.4153 18.544 60.4153C18.4884 60.4153 17.9696 60.8971 17.3766 61.4901Z" fill="#555555"/>
<path d="M60.889 60.9712L60.3516 61.5271L61.4449 62.639L62.5382 63.7509L63.1498 63.1579L63.7613 62.5649L62.705 61.4901C62.112 60.8971 61.5931 60.4153 61.5376 60.4153C61.4634 60.4153 61.1855 60.6747 60.889 60.9712Z" fill="#555555"/>
<path d="M24.9204 64.5292C23.9012 66.2711 23.0673 67.7536 23.0302 67.8277C22.9561 68.0501 24.3274 68.7913 24.4942 68.6245C24.661 68.4577 27.9966 62.6761 28.1263 62.3425C28.1819 62.2128 27.9039 61.9533 27.4777 61.731L26.7365 61.3603L24.9204 64.5292Z" fill="#555555"/>
<path d="M52.6065 61.7309C52.2174 61.9348 51.9023 62.1386 51.9023 62.1942C51.9023 62.3239 55.6271 68.7542 55.7012 68.7542C55.8309 68.7542 57.091 67.9759 57.091 67.9018C57.091 67.8091 53.3663 61.3418 53.3107 61.3418C53.3107 61.3603 52.9771 61.5271 52.6065 61.7309Z" fill="#555555"/>
<path d="M20.4167 64.2512L19.4531 65.4928L19.8793 65.8263C20.8244 66.5861 20.843 66.5861 21.751 65.3445C22.2328 64.6959 22.6219 64.103 22.6219 64.0474C22.6219 63.8991 21.6583 63.0281 21.4915 63.0096C21.4174 63.0096 20.9356 63.5655 20.4167 64.2512Z" fill="#555555"/>
<path d="M57.9798 63.4358C57.6833 63.6767 57.4609 63.9176 57.4609 64.0102C57.4609 64.2141 59.1287 66.3452 59.2955 66.3452C59.3882 66.3452 59.6847 66.1598 59.9812 65.9375C60.2777 65.7151 60.5556 65.5113 60.5927 65.4927C60.6853 65.4186 58.7581 63.0096 58.6099 63.0096C58.5357 63.0281 58.2578 63.2134 57.9798 63.4358Z" fill="#555555"/>
<path d="M39.3008 68.9395V72.6458H40.042H40.7833V68.9395V65.2333H40.042H39.3008V68.9395Z" fill="#555555"/>
<path d="M27.3088 68.4762L26.7344 69.8846L27.2903 70.1625C27.5868 70.3108 27.9574 70.422 28.1057 70.3849C28.328 70.3478 29.477 68.0871 29.477 67.7164C29.477 67.6052 28.2725 67.0864 28.0315 67.0864C27.9574 67.0864 27.6239 67.7164 27.3088 68.4762Z" fill="#555555"/>
<path d="M51.2151 67.42L50.6406 67.735L51.2151 69.1248C51.5301 69.8846 51.7896 70.5332 51.8081 70.5703C51.8451 70.6073 53.235 70.0699 53.3462 69.9587C53.4759 69.829 52.1972 67.0864 52.0119 67.0864C51.9007 67.1049 51.5486 67.2532 51.2151 67.42Z" fill="#555555"/>
<path d="M31.1838 69.8105C30.9615 70.6073 30.8503 71.3115 30.9429 71.4041C31.017 71.4783 31.3877 71.5894 31.7398 71.6636L32.4069 71.7562L32.6848 70.7741C33.2964 68.6801 33.2964 68.8098 32.4995 68.5874C32.1104 68.4762 31.7398 68.3836 31.6842 68.3836C31.6286 68.3836 31.4062 69.0322 31.1838 69.8105Z" fill="#555555"/>
<path d="M47.4904 68.6245C47.1568 68.7171 46.9159 68.9024 46.953 69.0136C46.99 69.1248 47.1939 69.829 47.3792 70.5702C47.6386 71.6265 47.7869 71.8859 48.0093 71.7933C48.1575 71.7377 48.5096 71.645 48.8061 71.5894C49.3435 71.4783 49.3991 71.3115 49.1211 70.4961C49.0285 70.1996 48.8617 69.6066 48.7505 69.1619C48.5467 68.3465 48.454 68.3094 47.4904 68.6245Z" fill="#555555"/>
<path d="M43.7853 69.2731C43.1367 69.3287 43.007 69.3843 43.0811 69.6437C43.1367 69.8105 43.2294 70.5147 43.3035 71.2003L43.4147 72.4604H44.0077C44.9898 72.4604 45.101 72.2937 44.9528 70.8668C44.8786 70.1626 44.7675 69.4955 44.6933 69.4028C44.6377 69.2916 44.2301 69.236 43.7853 69.2731Z" fill="#555555"/>
<path d="M35.3521 69.6066C35.2965 69.8105 35.1853 70.5146 35.1112 71.2003L35 72.4604H35.5559C35.871 72.4604 36.2416 72.4975 36.3898 72.5716C36.5937 72.6457 36.6863 72.3307 36.8346 71.1262C36.9458 70.2737 37.0014 69.551 36.9643 69.5325C36.9458 69.4954 36.5937 69.4213 36.186 69.3657C35.5745 69.2916 35.4262 69.3287 35.3521 69.6066Z" fill="#555555"/>
</svg>
