<svg width="80" height="76" viewBox="0 0 80 76" fill="none" xmlns="http://www.w3.org/2000/svg">
<path d="M12.381 3.50127V6.26318H13.7619H15.1429V19.2959V32.3459L13.0714 35.0906C11.9321 36.6096 11 37.9215 11 38.0251C11 38.1287 11.9321 39.4406 13.0714 40.9596L15.1429 43.7042V56.7542V69.787H13.7619H12.381V72.5489V75.3108H40H67.619V72.5489V69.787H66.2381H64.8571V56.7542V43.7042L66.9286 40.9596C68.0679 39.4406 69 38.1287 69 38.0251C69 37.9215 68.0679 36.6096 66.9286 35.0906L64.8571 32.3459V19.2959V6.26318H66.2381H67.619V3.50127V0.739365H40H12.381V3.50127ZM66.2381 3.50127V4.88223H40H13.7619V3.50127V2.12032H40H66.2381V3.50127ZM19.2857 12.9435C19.2857 16.7757 19.3548 19.9001 19.4583 20.2453C19.5446 20.5733 19.8726 21.281 20.1833 21.7989C20.6839 22.6102 21.6679 23.4906 27.4851 28.134C35.9952 34.9525 35.8917 34.8489 36.5304 36.1435C37.2381 37.5763 37.2381 38.4739 36.5304 39.9066C35.8917 41.2013 35.9952 41.0977 27.4851 47.9161C21.6679 52.5596 20.6839 53.44 20.1833 54.2513C19.8726 54.7691 19.5446 55.4769 19.4583 55.8048C19.3548 56.1501 19.2857 59.2745 19.2857 63.0894V69.787H17.9048H16.5238V56.7542V43.7042L18.5952 40.9596C19.7345 39.4406 20.6667 38.1287 20.6667 38.0251C20.6667 37.9215 19.7345 36.6096 18.5952 35.0906L16.5238 32.3459V19.2959V6.26318H17.9048H19.2857V12.9435ZM59.3333 12.3566C59.3333 18.8644 59.247 19.6584 58.453 21.0221C58.194 21.4709 55.7429 23.5251 50.7887 27.4953C46.7839 30.6888 43.2625 33.6233 42.9518 33.9858C42.6583 34.3656 42.1923 35.0906 41.9333 35.6084C41.5363 36.4197 41.4673 36.7822 41.4673 38.0251C41.4673 39.2679 41.5363 39.6304 41.9333 40.4417C42.1923 40.9596 42.6583 41.6846 42.9518 42.0644C43.2625 42.4269 46.7839 45.3614 50.7887 48.5548C55.7429 52.5251 58.194 54.5792 58.453 55.0281C59.247 56.3917 59.3333 57.1858 59.3333 63.6935V69.787H40H20.6667V63.6935C20.6667 57.2203 20.753 56.3917 21.5298 55.0626C21.7714 54.6483 24.4298 52.4042 29.1423 48.6239C33.1298 45.4132 36.6685 42.4959 36.9964 42.0989C37.3244 41.7191 37.8077 40.9769 38.0667 40.4417C38.4637 39.6304 38.5327 39.2679 38.5327 38.0251C38.5327 36.7822 38.4637 36.4197 38.0667 35.6084C37.8077 35.0906 37.3417 34.3656 37.0482 33.9858C36.7375 33.6233 33.2161 30.6888 29.2113 27.4953C24.2571 23.5251 21.806 21.4709 21.547 21.0221C20.753 19.6584 20.6667 18.8644 20.6667 12.3566V6.26318H40H59.3333V12.3566ZM63.4762 19.2959V32.3459L61.4048 35.0906C60.2655 36.6096 59.3333 37.9215 59.3333 38.0251C59.3333 38.1287 60.2655 39.4406 61.4048 40.9596L63.4762 43.7042V56.7542V69.787H62.0952H60.7143V63.0894C60.7143 59.2745 60.6452 56.1501 60.5417 55.8048C60.4554 55.4769 60.1274 54.7691 59.8167 54.2513C59.3161 53.44 58.3321 52.5596 52.5149 47.9161C44.0048 41.0977 44.1083 41.2013 43.4696 39.9066C42.7619 38.4739 42.7619 37.5763 43.4696 36.1435C44.1083 34.8489 44.0048 34.9525 52.5149 28.134C58.3321 23.4906 59.3161 22.6102 59.8167 21.7989C60.1274 21.281 60.4554 20.5733 60.5417 20.2453C60.6452 19.9001 60.7143 16.7757 60.7143 12.9435V6.26318H62.0952H63.4762V19.2959ZM17.3869 36.1263L18.8024 38.0251L17.3869 39.9239C16.6101 40.9596 15.9024 41.8227 15.8333 41.8227C15.7643 41.8227 15.0565 40.9596 14.2798 39.9239L12.8643 38.0251L14.2798 36.1263C15.0565 35.0733 15.7643 34.2275 15.8333 34.2275C15.9024 34.2275 16.6101 35.0733 17.3869 36.1263ZM65.7202 36.1263L67.1357 38.0251L65.7202 39.9239C64.9435 40.9596 64.2357 41.8227 64.1667 41.8227C64.0976 41.8227 63.3899 40.9596 62.6131 39.9239L61.1976 38.0251L62.6131 36.1263C63.3899 35.0733 64.0976 34.2275 64.1667 34.2275C64.2357 34.2275 64.9435 35.0733 65.7202 36.1263ZM66.2381 72.5489V73.9298H40H13.7619V72.5489V71.1679H40H66.2381V72.5489Z" fill="#222222"/>
<path d="M22.0469 18.0703V20.228L30.9195 27.0465C35.8046 30.8096 39.8957 33.8822 39.9993 33.8822C40.1028 33.8822 44.1939 30.8096 49.079 27.0465L57.9516 20.228V18.0703V15.9298H39.9993H22.0469V18.0703ZM56.5707 18.2947L56.5534 19.2959L48.285 25.6483L39.9993 32.0007L31.7135 25.6483L23.4451 19.2959L23.4278 18.2947V17.3108H39.9993H56.5707V18.2947Z" fill="#222222"/>
<path d="M38.6172 41.4774V42.1679H39.3077H39.9981V41.4774V40.787H39.3077H38.6172V41.4774Z" fill="#222222"/>
<path d="M40 44.2394V44.9299H40.6905H41.381V44.2394V43.5489H40.6905H40V44.2394Z" fill="#222222"/>
<path d="M38.6172 48.3822V49.0727H39.3077H39.9981V48.3822V47.6917H39.3077H38.6172V48.3822Z" fill="#222222"/>
<path d="M40 52.5251V53.2156H40.6905H41.381V52.5251V51.8346H40.6905H40V52.5251Z" fill="#222222"/>
<path d="M38.6172 58.0489V58.7394H39.3077H39.9981V58.0489V57.3584H39.3077H38.6172V58.0489Z" fill="#222222"/>
<path d="M34.3226 64.2286L28.9023 68.3197L34.4434 68.3715C37.4988 68.3887 42.5047 68.3887 45.5601 68.3715L51.1012 68.3197L45.6464 64.2113C42.6428 61.9673 40.0708 60.1203 39.9672 60.1375C39.8464 60.1375 37.3089 61.9845 34.3226 64.2286ZM43.3333 64.4703L46.6303 66.9387L43.316 66.9905C41.4863 67.0078 38.5172 67.0078 36.6875 66.9905L33.3732 66.9387L36.6529 64.4875C38.4482 63.1411 39.95 62.0191 39.9845 62.0191C40.019 62.0191 41.5381 63.1238 43.3333 64.4703Z" fill="#222222"/>
</svg>
