<svg width="81" height="77" viewBox="0 0 81 77" fill="none" xmlns="http://www.w3.org/2000/svg">
<path d="M48.0574 0.216301C41.5457 0.960487 36.5411 4.30931 35.9272 8.3279C35.8527 8.81161 35.9086 9.61161 36.0388 10.207C36.2248 11.0628 36.4295 11.4163 37.2667 12.2349L38.2527 13.2209L36.7272 13.9837C33.0621 15.8255 30.9783 17.9279 30.197 20.6441C29.3784 23.4534 30.476 26.2255 33.0993 28.0115C33.6574 28.365 33.9365 28.6813 33.8062 28.7557C33.6388 28.8487 33.9551 29.5743 34.476 30.2999C34.4946 30.3371 35.0155 30.2255 35.6109 30.058C36.6527 29.7604 36.783 29.7604 38.1783 30.1139C41.9178 31.0627 46.1039 31.4534 52.2806 31.4534C57.1736 31.4534 60.0387 31.2301 62.7364 30.672C63.7596 30.4487 64.7829 30.2813 65.0061 30.2813C65.7131 30.2999 68.9875 31.4534 70.5503 32.2348C75.2944 34.6162 77.527 37.7231 77.527 41.9464C77.527 46.0766 74.8479 48.7184 69.527 49.8719C66.2712 50.5789 64.4666 50.6905 55.8899 50.7091H47.5364L47.1643 51.4161C46.9597 51.8254 46.8294 52.1789 46.8853 52.2161C46.9225 52.2533 50.848 52.3091 55.5922 52.3277C65.0619 52.3649 67.2015 52.2161 70.9782 51.2673L72.9131 50.7649L73.6386 51.2859C74.6433 51.9742 76.3177 53.8161 76.82 54.7649C79.0154 58.8951 79.7223 64.737 78.3828 67.6393C76.7456 71.23 72.2433 73.2393 63.8898 74.1509C58.7364 74.709 27.0342 74.9695 24.1319 74.4672C21.583 74.0393 20.1505 73.6486 18.7551 73.016C17.6575 72.5137 17.1552 72.3835 16.2063 72.3835C15.5552 72.3835 15.0156 72.4579 15.0156 72.5509C15.0156 72.7928 16.597 73.9276 17.7691 74.5044C18.9598 75.1183 21.6016 75.8253 23.8528 76.1416C26.0481 76.4579 55.555 76.4393 60.4108 76.123C73.1549 75.2858 78.9409 72.6625 80.4107 67.0812C81.0247 64.6998 80.6526 60.1602 79.5549 56.8486C78.7549 54.43 77.8619 52.9789 76.1689 51.2673C75.3689 50.4487 74.7921 49.7603 74.9224 49.7231C75.4247 49.5556 77.0805 48.0487 77.6572 47.2301C78.6247 45.8905 79.0526 44.4766 79.1456 42.3371C79.313 39.0627 78.42 36.551 76.2805 34.2441C74.4944 32.3092 72.0014 30.7836 68.8945 29.6673L67.4433 29.165L68.0573 28.8301C69.248 28.2162 70.42 27.0069 71.0526 25.7232C71.6293 24.5511 71.6666 24.3836 71.6479 22.4302C71.6479 20.7744 71.5735 20.179 71.2387 19.3604C70.3642 17.1465 68.1317 14.8953 65.3968 13.5L63.9829 12.7744L64.4294 12.4395C64.6526 12.2535 65.0805 11.6395 65.3596 11.0814C66.3456 9.03487 65.6759 6.41163 63.6666 4.38373C60.5038 1.22095 54.0852 -0.490669 48.0574 0.216301ZM55.1085 2.15118C60.3178 3.23025 64.1317 6.11395 64.1317 8.99767C64.1317 12.0302 60.0759 13.4069 50.9969 13.4069C45.1736 13.4069 41.7876 12.9418 39.6109 11.8442C36.9876 10.5232 36.8574 8.08604 39.2946 5.64884C42.476 2.46745 49.3039 0.960487 55.1085 2.15118ZM62.9968 14.2442C65.9922 15.4907 68.3735 17.4813 69.3968 19.5279C69.9363 20.6255 69.9921 20.9046 69.9921 22.4302C69.9921 24.4209 69.6759 25.1464 68.2805 26.4488C66.7922 27.8441 64.6712 28.6627 60.6899 29.3511C57.9178 29.8348 46.8481 29.8348 43.2946 29.3511C36.3551 28.4022 32.6714 26.579 31.8342 23.6767C30.9597 20.7185 33.1179 17.6302 37.6202 15.4162C40.1504 14.1511 40.4853 14.0767 41.9364 14.393C46.5504 15.4348 57.9178 15.2302 61.1364 14.0581C61.5085 13.9093 61.8247 13.7976 61.8619 13.7976C61.8806 13.779 62.4015 13.9837 62.9968 14.2442Z" fill="#222222"/>
<path d="M21.9544 25.1278C18.587 26.7092 15.8707 28.886 14.8847 30.765C14.4382 31.5836 14.3823 31.9371 14.401 33.1278C14.4196 34.3371 14.8103 36.1232 15.294 37.2952C15.4056 37.5557 15.0893 37.4069 14.2521 36.8115C12.1126 35.2859 11.5731 35.0813 9.80562 35.0813C8.46609 35.0813 8.05679 35.1557 7.12656 35.6022C5.52657 36.3464 3.87076 37.5929 2.04751 39.4162C-0.222243 41.7045 -0.12922 41.5185 0.131244 43.7696C0.540544 47.3789 1.65682 50.6533 3.01495 52.2719C4.11262 53.5556 5.86145 54.151 8.55912 54.151H10.0847L9.06144 54.8394C7.51726 55.8812 6.17773 57.3324 5.82424 58.3556C5.41494 59.5463 5.45215 61.4068 5.89866 63.1928C6.23354 64.5137 8.29865 69.016 8.93121 69.8346C9.60097 70.6532 15.9451 71.3788 18.3823 70.9137C21.2846 70.337 22.5684 69.0533 23.666 65.6114L24.0753 64.3277L24.4846 65.5928C25.9358 70.0765 27.8335 71.2672 33.1172 71.0253C36.3544 70.8951 38.6055 70.43 39.2009 69.7788C39.852 69.0719 41.4892 65.7044 42.1032 63.8254C42.7171 61.8905 42.8287 59.3417 42.3264 58.2068C41.9171 57.2952 40.559 55.844 39.2567 54.951L38.2148 54.244L40.1497 54.1324C41.2101 54.058 42.438 53.9091 42.8846 53.7789C43.8148 53.4812 45.1729 52.3649 45.8241 51.3417C46.9404 49.5557 47.8892 46.2068 48.0752 43.3231L48.1869 41.5185L46.0659 39.3976C41.0799 34.4487 37.9357 33.7976 33.8799 36.8673L32.7265 37.7418L33.1916 36.4022C33.5637 35.3604 33.6753 34.7092 33.6939 33.3139C33.7125 31.0999 33.3404 30.2627 31.5358 28.5697C29.6195 26.7464 25.3032 24.3651 24.0009 24.4023C23.7218 24.4023 22.7916 24.7372 21.9544 25.1278ZM25.6195 26.7278C27.5358 27.6395 29.8614 29.2209 30.8102 30.2441C32.1683 31.7139 32.3916 32.7185 31.8334 34.8766C31.4986 36.2348 30.0474 39.3045 28.7823 41.4441C27.8335 43.0068 27.6846 43.4906 28.0753 43.8813C28.5962 44.4022 29.0986 44.1045 30.6986 42.2441C33.6009 38.9138 36.6706 36.6627 38.2892 36.6627C39.9636 36.6627 42.252 38.0394 44.8566 40.6069L46.5125 42.2255L46.3822 43.565C46.1962 45.444 45.452 48.2533 44.7822 49.6115C44.038 51.1184 43.052 52.0115 41.8241 52.2719C39.9264 52.6812 37.2846 52.4766 33.5637 51.6208C31.4241 51.137 30.9218 51.1557 30.7358 51.7324C30.5311 52.3649 30.9032 52.6626 33.0055 53.5742C36.745 55.1742 39.4613 56.9789 40.4474 58.4486C41.452 59.9556 41.0055 62.6533 39.145 66.3928C38.6241 67.4533 38.0288 68.4393 37.8241 68.5695C37.1171 69.016 34.8474 69.3137 32.3172 69.3137C29.9916 69.3137 29.7311 69.2765 28.7637 68.83C28.1869 68.5509 27.5358 68.0858 27.3125 67.7509C26.2893 66.2998 25.4335 63.1184 25.0614 59.1742C24.9311 58.0021 24.7637 56.9231 24.6521 56.7928C24.373 56.458 23.6102 56.5138 23.4242 56.8859C23.3311 57.0719 23.1823 57.9277 23.1265 58.8021C22.7544 63.4905 21.6381 67.1742 20.2242 68.3463C19.4428 69.016 18.5684 69.2393 16.4847 69.3509C14.7358 69.4439 11.5917 69.0905 10.5126 68.6812C10.1963 68.5695 9.78702 67.9742 9.09865 66.5788C7.77772 63.9742 7.36842 62.7091 7.2568 60.9044C7.16377 59.5091 7.18238 59.3231 7.62889 58.5789C8.4847 57.1091 11.5731 55.044 15.1079 53.5742C17.2661 52.6812 17.4335 52.5696 17.4335 52.0115C17.4335 51.137 17.0428 51.0812 14.68 51.6022C10.2893 52.5696 7.294 52.6998 5.56378 52.0115C3.81495 51.3045 2.53123 48.6068 1.88007 44.272L1.60101 42.4115L2.3824 41.5371C4.13123 39.5464 6.58703 37.6301 8.28005 36.979C9.89865 36.3464 11.3312 36.7371 13.5265 38.4301C14.4754 39.1743 17.0614 41.7603 18.5126 43.4161C19.1265 44.1231 19.6102 44.272 20.0009 43.8813C20.4102 43.472 20.2428 42.8766 19.2754 41.2952C17.4893 38.3371 16.28 35.4162 16.0196 33.4999C15.7405 31.3232 17.8056 29.1092 22.2335 26.8767C23.1265 26.4302 23.9451 26.0767 24.0381 26.0581C24.1497 26.0581 24.8567 26.3558 25.6195 26.7278Z" fill="#222222"/>
<path d="M25.4336 42.4115C24.6709 43.751 24.0011 44.8487 23.9453 44.8487C23.8895 44.8487 23.6104 44.4022 23.3127 43.8626C22.0476 41.5557 21.2662 40.3092 21.2104 40.4952C21.1732 40.6254 21.3592 41.965 21.6197 43.5092C21.8802 45.0347 22.0848 46.3929 22.0848 46.5045C22.0848 46.6347 20.7825 46.0394 19.2011 45.2208C17.6197 44.3836 16.3174 43.7696 16.3174 43.8626C16.3174 43.9371 17.1546 44.9231 18.1593 46.058C19.1825 47.1743 19.9825 48.1417 19.9453 48.1603C19.9081 48.1975 18.9406 48.4394 17.7686 48.6812C15.0523 49.2394 14.7732 49.3138 14.8662 49.4068C14.9221 49.4626 20.8011 50.4301 21.1174 50.4301C21.1918 50.4301 20.2058 51.4719 18.922 52.7556C17.6383 54.0393 16.6895 55.0812 16.8011 55.0812C16.9128 55.0812 18.1034 54.5789 19.4616 53.9835L21.8988 52.8673V53.3696C21.8988 53.8905 21.5825 56.83 21.4337 57.723C21.2662 58.7463 21.6569 58.1882 23.0151 55.4533C23.7778 53.9091 24.4476 52.6626 24.5034 52.6626C24.5592 52.6626 25.229 53.9277 25.9918 55.4719C27.5918 58.6905 27.6476 58.6533 27.2383 54.8952C27.0895 53.6114 26.9778 52.551 26.9964 52.5324C27.015 52.5138 28.1127 52.9789 29.4336 53.5742C30.7732 54.1882 31.8894 54.6347 31.9452 54.5975C31.9825 54.5417 30.9964 53.4812 29.7313 52.2161L27.4615 49.9463L30.4941 49.4998C32.1685 49.2766 33.5825 49.0161 33.6755 48.9417C33.7499 48.8859 32.708 48.5882 31.3499 48.3091C29.9918 48.0301 28.7267 47.751 28.5406 47.7138C28.2801 47.6208 28.5592 47.2301 30.0104 45.6673C30.9964 44.5882 31.7592 43.6766 31.7034 43.6208C31.6476 43.5464 30.3639 44.1603 28.8755 44.9417C27.3685 45.7231 26.1034 46.337 26.0662 46.2812C26.0104 46.244 26.1964 44.9231 26.4569 43.3603C26.7174 41.7975 26.922 40.3836 26.8848 40.2347C26.8476 40.0859 26.1964 41.0534 25.4336 42.4115ZM25.5825 47.9184C27.2011 49.6673 25.0616 52.2533 22.9964 51.044C22.4569 50.7277 21.8988 49.7975 21.8988 49.2208C21.8988 48.6812 22.4569 47.8254 23.0709 47.4347C23.9081 46.9138 24.8011 47.0812 25.5825 47.9184Z" fill="#222222"/>
<path d="M23.4971 48.6812C22.939 49.2394 23.2552 50.058 24.0366 50.058C24.2599 50.058 24.5204 49.965 24.6506 49.8347C24.7808 49.7045 24.8738 49.444 24.8738 49.2208C24.8738 48.4394 24.0552 48.1231 23.4971 48.6812Z" fill="#222222"/>
</svg>
