<svg width="150" height="48" viewBox="0 0 150 48" fill="none" xmlns="http://www.w3.org/2000/svg">
<path fill-rule="evenodd" clip-rule="evenodd" d="M125.399 5.70783H115.604V38.2208H125.399V23.5193L137.615 38.2208H150L135.425 21.6609L149.045 5.70783H136.921L125.399 20.8001V5.70783ZM85.5776 23.911H95.8938C98.3395 23.911 99.6796 25.7927 99.6796 28.4497C99.6796 30.9355 98.3387 33.0533 95.8938 33.0533H85.5776V23.911ZM105.731 5.70783H76.8271V38.2208H96.7284C103.208 38.2208 108.734 35.5639 108.734 28.364C108.734 21.1643 105.825 18.4574 99.2613 18.4734L85.5776 18.5071V11.2128H105.731V5.70783ZM47.8787 23.911H58.1949C60.6406 23.911 61.9807 25.7927 61.9807 28.4497C61.9807 30.9355 60.6397 33.0533 58.1949 33.0533H47.8787V23.911ZM68.0316 5.70783H39.1282V38.2208H59.0295C65.5084 38.2208 71.0351 35.5639 71.0351 28.364C71.0351 21.1643 68.1264 18.4574 61.5625 18.4734L47.8787 18.5071V11.2128H68.0316V5.70783ZM33.3125 5.59674V44.9647L27.9179 39.6255V0.257748L33.3125 5.59674ZM27.4055 -0.000221252V39.1186L26.2099 37.935V1.18305L27.4055 -0.000221252ZM25.6974 1.69025V37.428L24.5018 36.2447V2.8736L25.6974 1.69025ZM23.9894 3.3808V35.7375L22.7939 34.5543V4.56407L23.9894 3.3808ZM22.2814 5.07127V34.0471L21.0857 32.8638V6.25453L22.2814 5.07127ZM18.6233 8.67562L0.347092 26.7467C-0.122583 27.2498 -0.122579 27.8481 0.389787 28.3376L3.97664 31.9817L19.7762 47.9315L32.245 47.9995C32.8428 47.9858 33.3125 47.945 33.3125 47.0068L17.641 31.4514C9.44248 23.4017 15.2073 14.8081 18.6233 8.67562Z" fill="white"/>
<path d="M39.1289 47.9375V42.7697H42.7419V43.5908H40.1166V44.7845H41.755C42.0716 44.7845 42.3401 44.8478 42.5611 44.973C42.7811 45.0982 42.9468 45.2812 43.0585 45.5215C43.1701 45.7606 43.2253 46.0471 43.2253 46.3783C43.2253 46.7059 43.1701 46.9866 43.0595 47.2213C42.9491 47.4546 42.7844 47.6329 42.5667 47.7548C42.3493 47.8768 42.0833 47.9375 41.7677 47.9375H39.1289ZM135.939 45.7097H136.922V45.5571C136.922 45.3605 136.898 45.2099 136.85 45.104C136.801 44.9983 136.722 44.926 136.61 44.8856C136.499 44.8455 136.341 44.8259 136.135 44.8259C135.873 44.8259 135.695 44.8625 135.597 44.9374C135.5 45.0108 135.451 45.1536 135.451 45.3641H134.58C134.587 45.1431 134.63 44.9603 134.707 44.8133C134.783 44.6672 134.889 44.5544 135.023 44.4751C135.156 44.3957 135.311 44.3416 135.485 44.3119C135.659 44.2819 135.864 44.2669 136.1 44.2669C136.483 44.2669 136.79 44.2956 137.026 44.352C137.262 44.4084 137.447 44.5314 137.582 44.719C137.718 44.9075 137.786 45.1869 137.786 45.5571V47.9375H136.922L136.991 47.4397H136.971C136.896 47.6017 136.805 47.7226 136.698 47.8041C136.591 47.8846 136.466 47.9375 136.325 47.9629C136.182 47.987 135.999 47.9997 135.776 47.9997C135.467 47.9997 135.217 47.9628 135.025 47.8905C134.833 47.8168 134.69 47.6972 134.596 47.5316C134.503 47.3649 134.456 47.144 134.456 46.8682C134.456 46.6393 134.482 46.4496 134.531 46.3C134.582 46.1505 134.661 46.0334 134.769 45.947C134.877 45.8619 135.019 45.7997 135.195 45.7642C135.37 45.7273 135.594 45.709 135.867 45.709C135.891 45.709 135.916 45.7092 135.939 45.7097ZM136.234 46.3128H136.073L136.072 46.3091C135.88 46.3093 135.73 46.3266 135.623 46.3609C135.516 46.3942 135.44 46.4506 135.395 46.5288C135.35 46.607 135.327 46.7152 135.327 46.8541C135.327 47.0543 135.381 47.1947 135.489 47.2763C135.598 47.3578 135.787 47.3995 136.059 47.3995C136.37 47.3995 136.592 47.3614 136.724 47.2854C136.857 47.2095 136.923 47.0659 136.923 46.8541C136.923 46.6438 136.863 46.5001 136.744 46.4231C136.646 46.3603 136.476 46.3235 136.234 46.3128ZM107.511 45.7097H108.494V45.5571C108.494 45.3605 108.469 45.2099 108.421 45.104C108.373 44.9983 108.293 44.926 108.182 44.8856C108.07 44.8455 107.912 44.8259 107.706 44.8259C107.445 44.8259 107.266 44.8625 107.168 44.9374C107.072 45.0108 107.022 45.1536 107.022 45.3641H106.152C106.158 45.1431 106.201 44.9603 106.278 44.8133C106.354 44.6672 106.46 44.5544 106.594 44.4751C106.727 44.3957 106.882 44.3416 107.057 44.3119C107.231 44.2819 107.435 44.2669 107.671 44.2669C108.054 44.2669 108.361 44.2956 108.597 44.352C108.833 44.4084 109.019 44.5314 109.153 44.719C109.289 44.9075 109.357 45.1869 109.357 45.5571V47.9375H108.494L108.563 47.4397H108.542C108.467 47.6017 108.376 47.7226 108.269 47.8041C108.162 47.8846 108.038 47.9375 107.896 47.9629C107.753 47.987 107.57 47.9997 107.347 47.9997C107.038 47.9997 106.788 47.9628 106.596 47.8905C106.404 47.8168 106.261 47.6972 106.168 47.5316C106.074 47.3649 106.027 47.144 106.027 46.8682C106.027 46.6393 106.053 46.4496 106.102 46.3C106.153 46.1505 106.232 46.0334 106.34 45.947C106.449 45.8619 106.59 45.7997 106.766 45.7642C106.942 45.7273 107.165 45.709 107.438 45.709C107.462 45.709 107.487 45.7092 107.511 45.7097ZM107.806 46.3128H107.644L107.642 46.3091C107.451 46.3093 107.3 46.3266 107.193 46.3609C107.086 46.3942 107.01 46.4506 106.966 46.5288C106.921 46.607 106.898 46.7152 106.898 46.8541C106.898 47.0543 106.952 47.1947 107.06 47.2763C107.169 47.3578 107.358 47.3995 107.63 47.3995C107.941 47.3995 108.163 47.3614 108.295 47.2854C108.428 47.2095 108.493 47.0659 108.493 46.8541C108.493 46.6438 108.434 46.5001 108.315 46.4231C108.217 46.3603 108.048 46.3235 107.806 46.3128ZM73.1201 45.7097H74.103V45.5571C74.103 45.3605 74.0789 45.2099 74.0305 45.104C73.9822 44.9983 73.9027 44.926 73.7911 44.8856C73.6794 44.8455 73.5217 44.8259 73.3155 44.8259C73.0543 44.8259 72.8758 44.8625 72.7779 44.9374C72.6811 45.0108 72.6317 45.1536 72.6317 45.3641H71.7613C71.7679 45.1431 71.8109 44.9603 71.8879 44.8133C71.9639 44.6672 72.0697 44.5544 72.2035 44.4751C72.337 44.3957 72.4913 44.3416 72.6663 44.3119C72.8402 44.2819 73.045 44.2669 73.2811 44.2669C73.6633 44.2669 73.9708 44.2956 74.2067 44.352C74.4427 44.4084 74.6281 44.5314 74.7629 44.719C74.8987 44.9075 74.9666 45.1869 74.9666 45.5571V47.9375H74.103L74.1722 47.4397H74.1513C74.0766 47.6017 73.9858 47.7226 73.8785 47.8041C73.7714 47.8846 73.6471 47.9375 73.5057 47.9629C73.3628 47.987 73.1797 47.9997 72.9564 47.9997C72.6477 47.9997 72.398 47.9628 72.2058 47.8905C72.0135 47.8168 71.8706 47.6972 71.7773 47.5316C71.6842 47.3649 71.6369 47.144 71.6369 46.8682C71.6369 46.6393 71.6623 46.4496 71.7117 46.3C71.7623 46.1505 71.8419 46.0334 71.9502 45.947C72.0583 45.8619 72.2 45.7997 72.3762 45.7642C72.5511 45.7273 72.7744 45.709 73.0472 45.709C73.0722 45.709 73.0964 45.7092 73.1201 45.7097ZM73.4153 46.3128H73.2534L73.2527 46.3091C73.0608 46.3093 72.9105 46.3266 72.8034 46.3609C72.6964 46.3942 72.6205 46.4506 72.5756 46.5288C72.5305 46.607 72.5077 46.7152 72.5077 46.8541C72.5077 47.0543 72.5618 47.1947 72.6699 47.2763C72.7793 47.3578 72.9682 47.3995 73.2398 47.3995C73.5507 47.3995 73.773 47.3614 73.9053 47.2854C74.0377 47.2095 74.1034 47.0659 74.1034 46.8541C74.1034 46.6438 74.0435 46.5001 73.9249 46.4231C73.8269 46.3603 73.6571 46.3235 73.4153 46.3128ZM45.2324 45.7097H46.2152V45.5571C46.2152 45.3605 46.1911 45.2099 46.1427 45.104C46.0944 44.9983 46.015 44.926 45.9034 44.8856C45.7916 44.8455 45.6339 44.8259 45.4279 44.8259C45.1665 44.8259 44.988 44.8625 44.8901 44.9374C44.7935 45.0108 44.7438 45.1536 44.7438 45.3641H43.8735C43.8809 45.1431 43.9231 44.9603 44.0001 44.8133C44.0762 44.6672 44.1821 44.5544 44.3156 44.4751C44.4492 44.3957 44.6035 44.3416 44.7785 44.3119C44.9524 44.2819 45.1573 44.2669 45.3933 44.2669C45.7755 44.2669 46.0829 44.2956 46.3189 44.352C46.555 44.4084 46.7403 44.5314 46.8751 44.719C47.0109 44.9075 47.0788 45.1869 47.0788 45.5571V47.9375H46.2152L46.2844 47.4397H46.2638C46.1888 47.6017 46.098 47.7226 45.9909 47.8041C45.8839 47.8846 45.7593 47.9375 45.6179 47.9629C45.475 47.987 45.2919 47.9997 45.0686 47.9997C44.7602 47.9997 44.5102 47.9628 44.318 47.8905C44.1257 47.8168 43.9831 47.6972 43.8898 47.5316C43.7964 47.3649 43.7491 47.144 43.7491 46.8682C43.7491 46.6393 43.7746 46.4496 43.8239 46.3C43.8748 46.1505 43.9541 46.0334 44.0624 45.947C44.1705 45.8619 44.3121 45.7997 44.4883 45.7642C44.6633 45.7273 44.8868 45.709 45.1596 45.709C45.1845 45.709 45.2088 45.7092 45.2324 45.7097ZM45.5277 46.3128H45.2671L45.2667 46.3106C45.1209 46.3157 45.0034 46.3324 44.9155 46.3607C44.8085 46.394 44.7325 46.4503 44.6874 46.5286C44.6427 46.6068 44.6195 46.715 44.6195 46.854C44.6195 47.0541 44.6737 47.1946 44.782 47.2761C44.8913 47.3576 45.0801 47.3992 45.3519 47.3992C45.6626 47.3992 45.8849 47.3611 46.0174 47.2852C46.1498 47.2093 46.2152 47.0658 46.2152 46.854C46.2152 46.6436 46.1555 46.4999 46.0369 46.4229C45.9388 46.3601 45.7692 46.3235 45.5277 46.3128ZM40.1166 47.1166H41.3819C41.596 47.1166 41.7632 47.0958 41.8839 47.0556C42.005 47.0142 42.0924 46.9406 42.1477 46.8347C42.2028 46.7303 42.2305 46.5771 42.2305 46.377C42.2305 46.0816 42.1695 45.8792 42.0464 45.77C41.9231 45.6607 41.7125 45.6054 41.4153 45.6054H40.1166V47.1166ZM48.2889 44.322H51.3076V47.9375H50.4443V44.9913H49.1386V46.8268C49.1386 47.0543 49.1042 47.2545 49.035 47.427C48.9659 47.5994 48.8578 47.7353 48.7126 47.8328C48.5664 47.9306 48.3868 47.9791 48.1714 47.9791C47.9296 47.9791 47.7524 47.9674 47.6395 47.9444V47.2959C47.7214 47.3096 47.7948 47.3167 47.8607 47.3167C48.0239 47.3167 48.1369 47.2717 48.1979 47.1831C48.2589 47.0935 48.2889 46.9497 48.2889 46.7508V44.322ZM53.1382 47.9375H54.0018V44.9913H55.1613V44.322H51.9767V44.9913H53.1382V47.9375ZM55.7554 44.322V47.9375H56.8135L57.9936 45.6826C58.051 45.5767 58.1825 45.3064 58.3885 44.8729C58.3529 44.9684 58.3148 45.1353 58.2746 45.3732C58.2342 45.6125 58.2148 45.802 58.2148 45.9437V47.9375H59.0367V44.322H57.9799L56.7997 46.5909C56.7227 46.7348 56.5912 47.0072 56.406 47.4074C56.4439 47.3073 56.4818 47.1567 56.52 46.9578C56.5579 46.7589 56.5775 46.5817 56.5775 46.4265V44.322H55.7554ZM59.914 44.3155V47.9377H60.9721L62.1522 45.6758C62.2443 45.5115 62.3755 45.2448 62.5472 44.8732C62.5115 44.9697 62.4734 45.1366 62.4332 45.3735C62.3928 45.6093 62.3732 45.8 62.3732 45.944V47.9377H63.1953V44.3155H62.1385L60.9583 46.5982C60.8973 46.7097 60.7649 46.9764 60.5645 47.4008C60.6036 47.3008 60.6417 47.1511 60.6796 46.9536C60.7177 46.757 60.7361 46.5787 60.7361 46.42V44.3155H59.914ZM61.5236 44.0602C61.245 44.0602 61.0285 44.0061 60.8764 43.8982C60.7234 43.789 60.6463 43.5957 60.6463 43.3163H61.1241C61.1241 43.4359 61.1529 43.5185 61.2103 43.5647C61.269 43.6094 61.3761 43.6325 61.5318 43.6325C61.7032 43.6325 61.816 43.6107 61.8702 43.567C61.9243 43.5233 61.9518 43.4393 61.9518 43.3163H62.4216C62.4216 43.5957 62.3432 43.789 62.1856 43.8982C62.0289 44.0061 61.808 44.0602 61.5236 44.0602ZM66.38 46.5716H67.2307C67.2307 46.8327 67.2031 47.0547 67.1467 47.2353C67.0915 47.4158 67.0005 47.5629 66.8749 47.6746C66.7483 47.7872 66.5827 47.8689 66.3755 47.9217C66.1682 47.9736 65.9126 48 65.6062 48C65.1849 48 64.8533 47.9413 64.6137 47.8253C64.3732 47.7089 64.2015 47.5169 64.098 47.249C63.9933 46.98 63.9414 46.6097 63.9414 46.1371C63.9414 45.6598 63.9933 45.2862 64.098 45.0182C64.2015 44.749 64.3742 44.5558 64.615 44.441C64.8556 44.3246 65.1859 44.2672 65.6062 44.2672C65.9206 44.2672 66.1957 44.3017 66.4294 44.3695C66.6631 44.4373 66.8509 44.5593 66.9913 44.7353C67.1317 44.9123 67.2019 45.1539 67.2019 45.462V45.592H66.3605V45.5447C66.3605 45.3735 66.3363 45.2448 66.289 45.1584C66.2417 45.0711 66.1659 45.0124 66.0611 44.9824C65.9561 44.9515 65.8043 44.9365 65.6062 44.9365C65.4013 44.9365 65.2423 44.9722 65.1307 45.0447C65.019 45.1158 64.9408 45.2367 64.8947 45.4069C64.8487 45.577 64.8256 45.8208 64.8256 46.1371C64.8256 46.4487 64.8487 46.6902 64.8947 46.8593C64.9408 47.0282 65.0203 47.1501 65.132 47.2226C65.2436 47.2951 65.4013 47.3307 65.6062 47.3307C65.832 47.3307 65.9999 47.3066 66.1095 47.2593C66.2198 47.2121 66.2925 47.1374 66.3269 47.0341C66.3627 46.9295 66.38 46.7753 66.38 46.5716ZM68.784 44.3224V45.7231H68.9913L70.0067 44.3224H70.9946L69.7028 46.0187L71.242 47.9377H70.2002L68.9913 46.3153H68.784V47.9377H67.9205V44.3224H68.784ZM78.8363 44.3224V47.9446H77.9728V46.5579H77.3084L76.4943 47.9446H75.5746L76.4806 46.4464C75.9555 46.2981 75.6931 45.9565 75.6931 45.4195C75.6931 44.6881 76.0339 44.3224 76.7156 44.3224H78.8363ZM77.9728 45.93V44.9504H77.0609C76.8811 44.9504 76.7535 44.9847 76.6774 45.0551C76.6014 45.1252 76.5635 45.2539 76.5635 45.4401C76.5635 45.6288 76.6108 45.7576 76.7039 45.8266C76.7972 45.8955 76.9389 45.93 77.1301 45.93H77.9728ZM81.573 47.9377V42.77H85.1859V43.5911H82.5609V44.7848H84.1993C84.5159 44.7848 84.7841 44.8481 85.0051 44.9733C85.225 45.0985 85.3909 45.2816 85.5025 45.5218C85.6142 45.7609 85.6694 46.0474 85.6694 46.3786C85.6694 46.7062 85.6142 46.9868 85.5036 47.2215C85.3932 47.4549 85.2285 47.6332 85.0107 47.7551C84.7933 47.877 84.5273 47.9377 84.2118 47.9377H81.573ZM82.5609 47.1169H83.8263C84.0404 47.1169 84.2072 47.096 84.3282 47.0559C84.449 47.0145 84.5365 46.9409 84.5917 46.835C84.6471 46.7306 84.6746 46.5774 84.6746 46.3774C84.6746 46.0819 84.6138 45.8795 84.4904 45.7703C84.3671 45.6611 84.1565 45.6057 83.8595 45.6057H82.5609V47.1169ZM88.6651 46.7925H89.5218V46.9246C89.5218 47.2157 89.4549 47.441 89.3214 47.5987C89.1879 47.7562 89.0013 47.862 88.7641 47.9172C88.5258 47.9723 88.2219 48 87.8511 48C87.431 48 87.1017 47.9424 86.8645 47.8263C86.6273 47.7112 86.4568 47.5182 86.3544 47.249C86.2519 46.981 86.2003 46.612 86.2003 46.1439C86.2003 45.6781 86.2532 45.3103 86.359 45.0388C86.4638 44.7673 86.6377 44.5707 86.8782 44.4488C87.1201 44.3282 87.446 44.2672 87.858 44.2672C88.2692 44.2672 88.5972 44.3294 88.8413 44.4524C89.0855 44.5766 89.2617 44.7686 89.3687 45.0309C89.4758 45.2918 89.5287 45.6357 89.5287 46.0624V46.3163H87.0705C87.0705 46.6074 87.0936 46.8271 87.1396 46.9754C87.1857 47.1237 87.264 47.2271 87.3746 47.2858C87.485 47.3435 87.6462 47.3721 87.858 47.3721C88.0561 47.3721 88.2114 47.3582 88.3266 47.3295C88.4405 47.3008 88.5258 47.2502 88.5822 47.1766C88.6374 47.1042 88.6651 46.9983 88.6651 46.8617V46.7925ZM88.6801 45.7507C88.6801 45.5356 88.6547 45.3667 88.603 45.2435C88.5512 45.1216 88.466 45.0342 88.3486 44.9814C88.2301 44.9286 88.0688 44.9019 87.8649 44.9019C87.6635 44.9019 87.5058 44.9286 87.3906 44.9802C87.2767 45.0332 87.1938 45.1193 87.1442 45.2425C87.0949 45.3644 87.0705 45.5345 87.0705 45.7507H88.6801ZM91.1693 47.9377H92.0327V44.9916H93.1922V44.3224H90.0076V44.9916H91.1693V47.9377ZM93.6413 46.1233C93.6413 45.6471 93.6919 45.2768 93.7943 45.0111C93.8958 44.7468 94.0685 44.5558 94.3136 44.441C94.5577 44.3246 94.9031 44.2672 95.3476 44.2672C95.792 44.2672 96.1374 44.3246 96.3848 44.441C96.6325 44.5558 96.8074 44.7468 96.9122 45.0124C97.016 45.278 97.0676 45.6484 97.0676 46.1233C97.0676 46.4751 97.0388 46.7695 96.9813 47.0064C96.9249 47.2433 96.8303 47.4341 96.7004 47.5801C96.5702 47.7251 96.3952 47.8308 96.1765 47.8976C95.9589 47.9631 95.6825 47.9977 95.3486 48C95.0193 48 94.7443 47.9667 94.5232 47.8986C94.3032 47.8321 94.1282 47.7251 94.0004 47.5801C93.8727 47.4341 93.7806 47.2444 93.7254 47.01C93.669 46.7753 93.6413 46.4797 93.6413 46.1233ZM94.5255 46.1233C94.5255 46.4591 94.5509 46.712 94.6014 46.8834C94.6521 47.0546 94.7349 47.1707 94.8491 47.2329C94.9641 47.2951 95.1299 47.3272 95.3486 47.3307C95.5663 47.3307 95.7343 47.2997 95.8508 47.2375C95.9682 47.1755 96.0522 47.0582 96.1051 46.8857C96.157 46.7143 96.1834 46.4601 96.1834 46.1233C96.1834 45.8704 96.1697 45.6666 96.1407 45.516C96.112 45.3644 96.0659 45.2458 96.0026 45.162C95.9405 45.0779 95.8577 45.0193 95.754 44.9883C95.6515 44.956 95.5157 44.9388 95.3486 44.9365C95.1312 44.9365 94.9654 44.9664 94.8502 45.0274C94.7349 45.0883 94.6521 45.2034 94.6014 45.3735C94.5509 45.5437 94.5255 45.7932 94.5255 46.1233ZM98.6703 46.3646H100.197V47.9377H101.06V44.3224H100.197V45.6954H98.6703V44.3224H97.8068V47.9377H98.6703V46.3646ZM102.856 46.3646H104.383V47.9377H105.247V44.3224H104.383V45.6954H102.856V44.3224H101.993V47.9377H102.856V46.3646ZM113.227 44.3224V47.9446H112.363V46.5579H111.699L110.885 47.9446H109.965L110.871 46.4464C110.346 46.2981 110.084 45.9565 110.084 45.4195C110.084 44.6881 110.424 44.3224 111.106 44.3224H113.227ZM112.363 45.93V44.9504H111.451C111.272 44.9504 111.144 44.9847 111.068 45.0551C110.992 45.1252 110.954 45.2539 110.954 45.4401C110.954 45.6288 111.001 45.7576 111.094 45.8266C111.188 45.8955 111.329 45.93 111.52 45.93H112.363ZM116.958 42.77V44.8814H117.42L119.147 42.77H120.363L118.269 45.2885L120.584 47.9377H119.328L117.42 45.7299H116.958V47.9377H115.963V42.77H116.958ZM120.979 46.1233C120.979 45.6471 121.029 45.2768 121.132 45.0111C121.233 44.7468 121.406 44.5558 121.651 44.441C121.895 44.3246 122.24 44.2672 122.685 44.2672C123.129 44.2672 123.475 44.3246 123.722 44.441C123.97 44.5558 124.145 44.7468 124.249 45.0124C124.353 45.278 124.405 45.6484 124.405 46.1233C124.405 46.4751 124.376 46.7695 124.319 47.0064C124.262 47.2433 124.168 47.4341 124.038 47.5801C123.908 47.7251 123.733 47.8308 123.514 47.8976C123.296 47.9631 123.02 47.9977 122.686 48C122.357 48 122.082 47.9667 121.86 47.8986C121.641 47.8321 121.466 47.7251 121.338 47.5801C121.21 47.4341 121.118 47.2444 121.063 47.01C121.006 46.7753 120.979 46.4797 120.979 46.1233ZM121.863 46.1233C121.863 46.4591 121.888 46.712 121.939 46.8834C121.989 47.0546 122.072 47.1707 122.186 47.2329C122.301 47.2951 122.467 47.3272 122.686 47.3307C122.904 47.3307 123.072 47.2997 123.188 47.2375C123.306 47.1755 123.389 47.0582 123.442 46.8857C123.494 46.7143 123.521 46.4601 123.521 46.1233C123.521 45.8704 123.507 45.6666 123.478 45.516C123.449 45.3644 123.403 45.2458 123.34 45.162C123.278 45.0779 123.195 45.0193 123.091 44.9883C122.989 44.956 122.853 44.9388 122.686 44.9365C122.468 44.9365 122.303 44.9664 122.187 45.0274C122.072 45.0883 121.989 45.2034 121.939 45.3735C121.888 45.5437 121.863 45.7932 121.863 46.1233ZM127.783 47.9377L128.508 45.7644C128.565 45.6047 128.629 45.4195 128.703 45.2112C128.777 45.0033 128.825 44.8537 128.848 44.764C128.797 45.1125 128.772 45.4183 128.772 45.6829V47.9377H129.593V44.3224H128.28L127.471 46.7499C127.448 46.8063 127.411 47.0041 127.362 47.3445C127.312 47.0052 127.275 46.8075 127.25 46.7499L126.443 44.3224H125.137V47.9377H125.952V45.6829C125.952 45.4183 125.927 45.1125 125.876 44.764C125.897 44.8458 125.956 45.0228 126.051 45.2941C126.147 45.5656 126.201 45.7219 126.215 45.7644L126.94 47.9377H127.783ZM131.341 44.9916H132.867V47.9377H133.731V44.3224H130.477V47.9377H131.341V44.9916ZM139.542 46.3646H141.068V47.9377H141.932V44.3224H141.068V45.6954H139.542V44.3224H138.678V47.9377H139.542V46.3646ZM142.857 44.3224V47.9377H143.916L145.096 45.6829C145.153 45.577 145.284 45.3067 145.491 44.8732C145.455 44.9687 145.417 45.1356 145.377 45.3735C145.336 45.6128 145.317 45.8023 145.317 45.944V47.9377H146.139V44.3224H145.082L143.902 46.5912C143.825 46.7351 143.693 47.0075 143.508 47.4077C143.546 47.3076 143.584 47.157 143.622 46.9581C143.66 46.7593 143.679 46.582 143.679 46.4268V44.3224H142.857ZM150 44.3224V47.9446H149.137V46.5579H148.472L147.659 47.9446H146.739L147.645 46.4464C147.12 46.2981 146.857 45.9565 146.857 45.4195C146.857 44.6881 147.198 44.3224 147.88 44.3224H150ZM149.137 45.93V44.9504H148.225C148.045 44.9504 147.918 44.9847 147.842 45.0551C147.766 45.1252 147.728 45.2539 147.728 45.4401C147.728 45.6288 147.775 45.7576 147.868 45.8266C147.961 45.8955 148.103 45.93 148.294 45.93H149.137Z" fill="white"/>
</svg>
