<svg width="99" height="57" viewBox="0 0 99 57" fill="none" xmlns="http://www.w3.org/2000/svg">
<path d="M16.9555 24.0562L1 32.2044" stroke="#999999" stroke-width="0.367654" stroke-miterlimit="10"/>
<path d="M52.9664 46.4845L37.0273 54.6327" stroke="#999999" stroke-width="0.367654" stroke-miterlimit="10"/>
<path d="M53 46.4515C53.1976 46.4515 68.8567 55.9715 68.8567 55.9715L53 46.4515Z" fill="#999999"/>
<path d="M53 46.4515C53.1976 46.4515 68.8567 55.9715 68.8567 55.9715" stroke="#999999" stroke-width="0.367654" stroke-miterlimit="10"/>
<path d="M77.0723 31.7417C77.2534 31.7417 92.929 41.2783 92.929 41.2783L77.0723 31.7417Z" fill="#999999"/>
<path d="M77.0723 31.7417C77.2534 31.7417 92.929 41.2783 92.929 41.2783" stroke="#999999" stroke-width="0.367654" stroke-miterlimit="10"/>
<path d="M5.44531 30.3368L40.3532 52.5171" stroke="#999999" stroke-width="0.367654" stroke-miterlimit="10"/>
<mask id="path-8-inside-1_310_187" fill="white">
<path d="M6.36864 32.5681C6.39294 32.5408 6.40638 32.5055 6.40638 32.4689C6.40638 32.4324 6.39294 32.397 6.36864 32.3698L5.49594 30.3699H7.76825C7.80755 30.3699 7.84524 30.3542 7.87303 30.3263C7.90083 30.2984 7.91644 30.2606 7.91644 30.2212C7.91644 30.1817 7.90083 30.1439 7.87303 30.116C7.84524 30.0881 7.80755 30.0724 7.76825 30.0724H5.26542C5.24746 30.0636 5.22776 30.0591 5.20779 30.0591C5.18782 30.0591 5.16811 30.0636 5.15016 30.0724C5.13396 30.0906 5.125 30.1141 5.125 30.1385C5.125 30.1629 5.13396 30.1864 5.15016 30.2046L6.12165 32.502C6.12118 32.5315 6.13054 32.5603 6.14826 32.5838C6.16597 32.6074 6.19102 32.6243 6.21942 32.6319C6.24782 32.6395 6.27793 32.6373 6.30497 32.6258C6.33201 32.6142 6.35442 32.5939 6.36864 32.5681Z"/>
</mask>
<path d="M6.36864 32.5681C6.39294 32.5408 6.40638 32.5055 6.40638 32.4689C6.40638 32.4324 6.39294 32.397 6.36864 32.3698L5.49594 30.3699H7.76825C7.80755 30.3699 7.84524 30.3542 7.87303 30.3263C7.90083 30.2984 7.91644 30.2606 7.91644 30.2212C7.91644 30.1817 7.90083 30.1439 7.87303 30.116C7.84524 30.0881 7.80755 30.0724 7.76825 30.0724H5.26542C5.24746 30.0636 5.22776 30.0591 5.20779 30.0591C5.18782 30.0591 5.16811 30.0636 5.15016 30.0724C5.13396 30.0906 5.125 30.1141 5.125 30.1385C5.125 30.1629 5.13396 30.1864 5.15016 30.2046L6.12165 32.502C6.12118 32.5315 6.13054 32.5603 6.14826 32.5838C6.16597 32.6074 6.19102 32.6243 6.21942 32.6319C6.24782 32.6395 6.27793 32.6373 6.30497 32.6258C6.33201 32.6142 6.35442 32.5939 6.36864 32.5681Z" fill="#999999"/>
<path d="M6.36864 32.5681L5.27068 31.5897L5.16047 31.7134L5.08053 31.8585L6.36864 32.5681ZM6.36864 32.3698L5.02077 32.958L5.1146 33.173L5.27068 33.3481L6.36864 32.3698ZM5.49594 30.3699V28.8993H3.24966L4.14807 30.9581L5.49594 30.3699ZM5.26542 30.0724L4.62007 31.3939L4.92551 31.543H5.26542V30.0724ZM5.15016 30.0724L4.50481 28.751L4.24475 28.878L4.0522 29.094L5.15016 30.0724ZM5.125 30.1385H6.59561H5.125ZM5.15016 30.2046L6.50465 29.6319L6.40992 29.4078L6.24811 29.2263L5.15016 30.2046ZM6.12165 32.502L7.59208 32.5256L7.59706 32.2152L7.47614 31.9292L6.12165 32.502ZM7.4666 33.5465C7.73137 33.2493 7.87699 32.8657 7.87699 32.4689H4.93576C4.93576 32.1454 5.05451 31.8323 5.27068 31.5897L7.4666 33.5465ZM7.87699 32.4689C7.87699 32.0723 7.73139 31.6886 7.4666 31.3914L5.27068 33.3481C5.05449 33.1055 4.93576 32.7925 4.93576 32.4689H7.87699ZM7.71651 31.7816L6.84381 29.7817L4.14807 30.9581L5.02077 32.958L7.71651 31.7816ZM5.49594 31.8405H7.76825V28.8993H5.49594V31.8405ZM7.76825 31.8405C8.19933 31.8405 8.61168 31.6686 8.91486 31.3643L6.83121 29.2884C7.0788 29.0399 7.41577 28.8993 7.76825 28.8993V31.8405ZM8.91486 31.3643C9.21784 31.0602 9.38705 30.6489 9.38705 30.2212H6.44583C6.44583 29.8724 6.58381 29.5367 6.83121 29.2884L8.91486 31.3643ZM9.38705 30.2212C9.38705 29.7934 9.21782 29.3821 8.91486 29.078L6.83121 31.1539C6.58383 30.9056 6.44583 30.57 6.44583 30.2212H9.38705ZM8.91486 29.078C8.61174 28.7738 8.19941 28.6018 7.76825 28.6018V31.543C7.41569 31.543 7.07875 31.4024 6.83121 31.1539L8.91486 29.078ZM7.76825 28.6018H5.26542V31.543H7.76825V28.6018ZM5.91077 28.751C5.69197 28.6441 5.45157 28.5885 5.20779 28.5885V31.5297C5.00394 31.5297 4.80295 31.4832 4.62007 31.3939L5.91077 28.751ZM5.20779 28.5885C4.964 28.5885 4.7236 28.6441 4.50481 28.751L5.7955 31.3939C5.61263 31.4832 5.41164 31.5297 5.20779 31.5297V28.5885ZM4.0522 29.094C3.79552 29.3821 3.65439 29.754 3.65439 30.1385H6.59561C6.59561 30.4742 6.47239 30.7991 6.24811 31.0508L4.0522 29.094ZM3.65439 30.1385C3.65439 30.5231 3.79556 30.895 4.0522 31.183L6.24811 29.2263C6.47236 29.4779 6.59561 29.8027 6.59561 30.1385H3.65439ZM3.79567 30.7774L4.76716 33.0748L7.47614 31.9292L6.50465 29.6319L3.79567 30.7774ZM4.65122 32.4784C4.64551 32.8345 4.75856 33.183 4.9733 33.4682L7.32322 31.6994C7.50253 31.9376 7.59685 32.2285 7.59208 32.5256L4.65122 32.4784ZM4.9733 33.4682C5.18815 33.7537 5.49271 33.9598 5.83917 34.0525L6.59967 31.2113C6.88933 31.2888 7.1438 31.4611 7.32322 31.6994L4.9733 33.4682ZM5.83917 34.0525C6.18567 34.1452 6.5532 34.119 6.88294 33.9781L5.727 31.2735C6.00266 31.1557 6.30996 31.1337 6.59967 31.2113L5.83917 34.0525ZM6.88294 33.9781C7.21256 33.8372 7.48458 33.5902 7.65675 33.2777L5.08053 31.8585C5.22426 31.5976 5.45145 31.3913 5.727 31.2735L6.88294 33.9781Z" fill="#999999" mask="url(#path-8-inside-1_310_187)"/>
<path d="M38.0151 52.5251C38.0091 52.5291 38.0034 52.5334 37.998 52.5382C37.9707 52.5627 37.9533 52.5964 37.9492 52.6329M38.0151 52.5251L38.1562 52.7155H38.0974H38.0961H38.0151C37.9847 52.696 37.9616 52.6669 37.9492 52.6329M38.0151 52.5251V52.5573V52.609L37.9492 52.6329M38.0151 52.5251V52.6402L37.9492 52.6329M38.1045 52.5766L38.1534 52.5007H38.3141L38.1045 52.5766Z" fill="#999999" stroke="#999999" stroke-width="1.47061"/>
<path d="M87.0673 38.4522L63.4551 52.3852" stroke="#999999" stroke-width="0.367654" stroke-miterlimit="10"/>
<path d="M84.7703 38.3128L84.7799 38.3033L84.7703 38.3128ZM84.7703 38.3128L84.8019 38.3254L84.7464 38.27V38.3032L84.7703 38.3128Z" fill="#999999" stroke="#999999" stroke-width="1.47061"/>
<mask id="path-13-inside-2_310_187" fill="white">
<path d="M64.4435 50.2033C64.4678 50.2306 64.4813 50.2659 64.4813 50.3025C64.4813 50.3391 64.4678 50.3744 64.4435 50.4017L63.4391 52.3685L65.6455 52.4511C65.6643 52.451 65.6829 52.4549 65.7001 52.4625C65.7172 52.4702 65.7326 52.4814 65.745 52.4955C65.7575 52.5096 65.7668 52.5262 65.7724 52.5442C65.778 52.5622 65.7796 52.5812 65.7773 52.5999C65.7732 52.6364 65.7558 52.6701 65.7285 52.6945C65.7011 52.7189 65.6657 52.7323 65.6291 52.7321L63.2086 52.6495C63.1878 52.6586 63.1654 52.6633 63.1427 52.6633C63.1201 52.6633 63.0976 52.6586 63.0769 52.6495C63.0603 52.6069 63.0603 52.5597 63.0769 52.5172L64.2459 50.2033C64.2583 50.1893 64.2735 50.178 64.2905 50.1703C64.3076 50.1626 64.326 50.1586 64.3447 50.1586C64.3634 50.1586 64.3819 50.1626 64.3989 50.1703C64.416 50.178 64.4312 50.1893 64.4435 50.2033Z"/>
</mask>
<path d="M64.4435 50.2033C64.4678 50.2306 64.4813 50.2659 64.4813 50.3025C64.4813 50.3391 64.4678 50.3744 64.4435 50.4017L63.4391 52.3685L65.6455 52.4511C65.6643 52.451 65.6829 52.4549 65.7001 52.4625C65.7172 52.4702 65.7326 52.4814 65.745 52.4955C65.7575 52.5096 65.7668 52.5262 65.7724 52.5442C65.778 52.5622 65.7796 52.5812 65.7773 52.5999C65.7732 52.6364 65.7558 52.6701 65.7285 52.6945C65.7011 52.7189 65.6657 52.7323 65.6291 52.7321L63.2086 52.6495C63.1878 52.6586 63.1654 52.6633 63.1427 52.6633C63.1201 52.6633 63.0976 52.6586 63.0769 52.6495C63.0603 52.6069 63.0603 52.5597 63.0769 52.5172L64.2459 50.2033C64.2583 50.1893 64.2735 50.178 64.2905 50.1703C64.3076 50.1626 64.326 50.1586 64.3447 50.1586C64.3634 50.1586 64.3819 50.1626 64.3989 50.1703C64.416 50.178 64.4312 50.1893 64.4435 50.2033Z" fill="#999999"/>
<path d="M64.4435 50.2033L63.3387 51.174L63.3456 51.1817L64.4435 50.2033ZM64.4813 50.3025H63.0106H64.4813ZM64.4435 50.4017L63.3456 49.4233L63.2198 49.5645L63.1338 49.7328L64.4435 50.4017ZM63.4391 52.3685L62.1294 51.6996L61.0814 53.7518L63.3841 53.8381L63.4391 52.3685ZM65.6455 52.4511L65.5905 53.9207L65.6238 53.922L65.6571 53.9217L65.6455 52.4511ZM65.7773 52.5999L64.3181 52.4167L64.3168 52.4269L64.3157 52.4371L65.7773 52.5999ZM65.6291 52.7321L65.5789 54.2019L65.5994 54.2026L65.6199 54.2027L65.6291 52.7321ZM63.2086 52.6495L63.2588 51.1797L62.9247 51.1683L62.6185 51.3024L63.2086 52.6495ZM63.1427 52.6633V54.1339V52.6633ZM63.0769 52.6495L61.7062 53.1825L61.9275 53.7515L62.4868 53.9965L63.0769 52.6495ZM63.0769 52.5172L61.7643 51.8541L61.7321 51.9177L61.7062 51.9842L63.0769 52.5172ZM64.2459 50.2033L63.1412 49.2327L63.0177 49.3732L62.9333 49.5402L64.2459 50.2033ZM63.3456 51.1817C63.1294 50.9391 63.0106 50.6261 63.0106 50.3025H65.9519C65.9519 49.9057 65.8062 49.5221 65.5415 49.225L63.3456 51.1817ZM63.0106 50.3025C63.0106 49.979 63.1294 49.6659 63.3456 49.4233L65.5415 51.38C65.8062 51.0829 65.9519 50.6992 65.9519 50.3025H63.0106ZM63.1338 49.7328L62.1294 51.6996L64.7488 53.0373L65.7532 51.0705L63.1338 49.7328ZM63.3841 53.8381L65.5905 53.9207L65.7006 50.9815L63.4941 50.8989L63.3841 53.8381ZM65.6571 53.9217C65.4655 53.9232 65.2759 53.8836 65.101 53.8056L66.2991 51.1194C66.09 51.0261 65.8631 50.9787 65.634 50.9806L65.6571 53.9217ZM65.101 53.8056C64.9261 53.7276 64.7704 53.6132 64.6441 53.4705L66.846 51.5205C66.6947 51.3496 66.5083 51.2127 66.2991 51.1194L65.101 53.8056ZM64.6441 53.4705C64.5177 53.3278 64.4234 53.1599 64.3673 52.9782L67.1775 52.1102C67.1103 51.8924 66.9973 51.6914 66.846 51.5205L64.6441 53.4705ZM64.3673 52.9782C64.3112 52.7966 64.2944 52.6051 64.3181 52.4167L67.2364 52.7831C67.2648 52.5572 67.2447 52.3278 67.1775 52.1102L64.3673 52.9782ZM64.3157 52.4371C64.3517 52.1142 64.5055 51.8148 64.7494 51.5972L66.7075 53.7919C67.0061 53.5254 67.1948 53.1586 67.2388 52.7626L64.3157 52.4371ZM64.7494 51.5972C64.9933 51.3795 65.3099 51.2595 65.6382 51.2615L65.6199 54.2027C66.0215 54.2052 66.4088 54.0584 66.7075 53.7919L64.7494 51.5972ZM65.6793 51.2623L63.2588 51.1797L63.1584 54.1192L65.5789 54.2019L65.6793 51.2623ZM62.6185 51.3024C62.7836 51.2301 62.9621 51.1926 63.1427 51.1926V54.1339C63.3687 54.1339 63.592 54.087 63.7987 53.9965L62.6185 51.3024ZM63.1427 51.1926C63.3233 51.1926 63.5018 51.2301 63.667 51.3024L62.4868 53.9965C62.6935 54.087 62.9168 54.1339 63.1427 54.1339V51.1926ZM64.4475 52.1164C64.5643 52.4168 64.5643 52.7499 64.4475 53.0503L61.7062 51.9842C61.5564 52.3696 61.5564 52.7971 61.7062 53.1825L64.4475 52.1164ZM64.3894 53.1804L65.5585 50.8665L62.9333 49.5402L61.7643 51.8541L64.3894 53.1804ZM65.3507 51.174C65.2255 51.3166 65.0711 51.4312 64.8975 51.5098L63.6836 48.8308C63.4759 48.9248 63.2911 49.062 63.1412 49.2327L65.3507 51.174ZM64.8975 51.5098C64.7238 51.5885 64.5354 51.6292 64.3447 51.6292V48.688C64.1167 48.688 63.8913 48.7366 63.6836 48.8308L64.8975 51.5098ZM64.3447 51.6292C64.154 51.6292 63.9656 51.5884 63.792 51.5098L65.0059 48.8308C64.7982 48.7367 64.5728 48.688 64.3447 48.688V51.6292ZM63.792 51.5098C63.6184 51.4312 63.464 51.3166 63.3388 51.174L65.5483 49.2327C65.3983 49.062 65.2135 48.9248 65.0059 48.8308L63.792 51.5098Z" fill="#999999" mask="url(#path-13-inside-2_310_187)"/>
<path d="M17.0039 15.5775V24.2712L53.1632 46.2532L76.9729 31.6922V22.9985L40.8137 1L17.0039 15.5775Z" stroke="#003064" stroke-width="0.588246" stroke-miterlimit="10"/>
<path d="M17.0039 15.4454L53.0314 37.3778L76.9729 22.9986" stroke="#003064" stroke-width="0.588246" stroke-miterlimit="10"/>
<path d="M53.0332 37.3777V46.2532" stroke="#003064" stroke-width="0.367654" stroke-miterlimit="10"/>
<path d="M18.4531 15.4453L40.6822 1.95856L75.5736 22.9324L53.1634 36.4191L18.4531 15.4453Z" stroke="#003064" stroke-width="0.367654" stroke-miterlimit="10"/>
<path d="M6.039 56.195C5.44533 56.195 4.90583 56.052 4.4205 55.766C3.9395 55.48 3.556 55.09 3.27 54.596C2.98833 54.0977 2.8475 53.5365 2.8475 52.9125L2.8475 49.799C2.8475 49.1447 2.98833 48.5662 3.27 48.0635C3.556 47.5565 3.946 47.1622 4.44 46.8805C4.93833 46.5945 5.506 46.4515 6.143 46.4515C6.65867 46.4515 7.1375 46.5577 7.5795 46.77C8.02583 46.978 8.40066 47.2792 8.704 47.6735L7.8395 48.4405C7.65317 48.1675 7.4105 47.9508 7.1115 47.7905C6.8125 47.6302 6.48967 47.55 6.143 47.55C5.73133 47.55 5.36517 47.6497 5.0445 47.849C4.72817 48.044 4.479 48.304 4.297 48.629C4.115 48.9497 4.024 49.2963 4.024 49.669V51.5475L3.7705 51.2615C4.0435 50.8715 4.39017 50.5595 4.8105 50.3255C5.23083 50.0915 5.68583 49.9745 6.1755 49.9745C6.75617 49.9745 7.27616 50.111 7.7355 50.384C8.19916 50.657 8.56316 51.0275 8.8275 51.4955C9.09616 51.9592 9.2305 52.4813 9.2305 53.062C9.2305 53.6427 9.08533 54.1692 8.795 54.6415C8.50466 55.1138 8.11683 55.4908 7.6315 55.7725C7.1505 56.0542 6.61967 56.195 6.039 56.195ZM6.039 55.077C6.41167 55.077 6.75183 54.9882 7.0595 54.8105C7.36716 54.6285 7.60983 54.3858 7.7875 54.0825C7.9695 53.7748 8.0605 53.4347 8.0605 53.062C8.0605 52.6893 7.9695 52.3492 7.7875 52.0415C7.60983 51.7338 7.36716 51.4912 7.0595 51.3135C6.75617 51.1315 6.41817 51.0405 6.0455 51.0405C5.67283 51.0405 5.33267 51.1315 5.025 51.3135C4.72167 51.4912 4.479 51.7338 4.297 52.0415C4.115 52.3492 4.024 52.6893 4.024 53.062C4.024 53.4303 4.11283 53.7683 4.2905 54.076C4.4725 54.3793 4.71517 54.622 5.0185 54.804C5.32617 54.986 5.66633 55.077 6.039 55.077ZM14.0807 56.195C13.474 56.195 12.9324 56.0585 12.4557 55.7855C11.9834 55.5082 11.6085 55.1333 11.3312 54.661C11.0582 54.1843 10.9217 53.6427 10.9217 53.036V49.604C10.9217 48.9973 11.0582 48.4557 11.3312 47.979C11.6085 47.5023 11.9834 47.1275 12.4557 46.8545C12.9324 46.5815 13.474 46.445 14.0807 46.445C14.6874 46.445 15.229 46.5815 15.7057 46.8545C16.1824 47.1275 16.5572 47.5023 16.8302 47.979C17.1032 48.4557 17.2397 48.9973 17.2397 49.604V53.036C17.2397 53.6427 17.1032 54.1843 16.8302 54.661C16.5572 55.1333 16.1824 55.5082 15.7057 55.7855C15.229 56.0585 14.6874 56.195 14.0807 56.195ZM14.0807 55.0835C14.449 55.0835 14.7827 54.9947 15.0817 54.817C15.3807 54.6393 15.619 54.401 15.7967 54.102C15.9744 53.7987 16.0632 53.465 16.0632 53.101V49.5325C16.0632 49.1642 15.9744 48.8305 15.7967 48.5315C15.619 48.2325 15.3807 47.9942 15.0817 47.8165C14.7827 47.6388 14.449 47.55 14.0807 47.55C13.7167 47.55 13.383 47.6388 13.0797 47.8165C12.7807 47.9942 12.5424 48.2325 12.3647 48.5315C12.187 48.8305 12.0982 49.1642 12.0982 49.5325V53.101C12.0982 53.465 12.187 53.7987 12.3647 54.102C12.5424 54.401 12.7807 54.6393 13.0797 54.817C13.383 54.9947 13.7167 55.0835 14.0807 55.0835ZM22.2184 56.195C21.6117 56.195 21.0701 56.0585 20.5934 55.7855C20.1211 55.5082 19.7462 55.1333 19.4689 54.661C19.1959 54.1843 19.0594 53.6427 19.0594 53.036V49.604C19.0594 48.9973 19.1959 48.4557 19.4689 47.979C19.7462 47.5023 20.1211 47.1275 20.5934 46.8545C21.0701 46.5815 21.6117 46.445 22.2184 46.445C22.8251 46.445 23.3667 46.5815 23.8434 46.8545C24.3201 47.1275 24.6949 47.5023 24.9679 47.979C25.2409 48.4557 25.3774 48.9973 25.3774 49.604V53.036C25.3774 53.6427 25.2409 54.1843 24.9679 54.661C24.6949 55.1333 24.3201 55.5082 23.8434 55.7855C23.3667 56.0585 22.8251 56.195 22.2184 56.195ZM22.2184 55.0835C22.5867 55.0835 22.9204 54.9947 23.2194 54.817C23.5184 54.6393 23.7567 54.401 23.9344 54.102C24.1121 53.7987 24.2009 53.465 24.2009 53.101V49.5325C24.2009 49.1642 24.1121 48.8305 23.9344 48.5315C23.7567 48.2325 23.5184 47.9942 23.2194 47.8165C22.9204 47.6388 22.5867 47.55 22.2184 47.55C21.8544 47.55 21.5207 47.6388 21.2174 47.8165C20.9184 47.9942 20.6801 48.2325 20.5024 48.5315C20.3247 48.8305 20.2359 49.1642 20.2359 49.5325V53.101C20.2359 53.465 20.3247 53.7987 20.5024 54.102C20.6801 54.401 20.9184 54.6393 21.2174 54.817C21.5207 54.9947 21.8544 55.0835 22.2184 55.0835Z" fill="#999999"/>
<path d="M75.5875 55.9935L75.594 54.9535L79.7475 51.216C80.0942 50.904 80.326 50.6093 80.443 50.332C80.5643 50.0503 80.625 49.7622 80.625 49.4675C80.625 49.1078 80.5427 48.7828 80.378 48.4925C80.2133 48.2022 79.988 47.9725 79.702 47.8035C79.4203 47.6345 79.0997 47.55 78.74 47.55C78.3673 47.55 78.0358 47.6388 77.7455 47.8165C77.4552 47.9898 77.2255 48.2217 77.0565 48.512C76.8918 48.8023 76.8117 49.1187 76.816 49.461H75.633C75.633 48.8717 75.7695 48.3517 76.0425 47.901C76.3155 47.446 76.686 47.0907 77.154 46.835C77.6263 46.575 78.1615 46.445 78.7595 46.445C79.3402 46.445 79.8602 46.5793 80.3195 46.848C80.7788 47.1123 81.1407 47.4742 81.405 47.9335C81.6737 48.3885 81.808 48.9042 81.808 49.4805C81.808 49.8878 81.756 50.241 81.652 50.54C81.5523 50.839 81.3963 51.1163 81.184 51.372C80.9717 51.6233 80.7052 51.892 80.3845 52.178L76.933 55.2785L76.7835 54.8885H81.808V55.9935H75.5875ZM86.5221 56.195C85.9155 56.195 85.3738 56.0585 84.8971 55.7855C84.4248 55.5082 84.05 55.1333 83.7726 54.661C83.4996 54.1843 83.3631 53.6427 83.3631 53.036V49.604C83.3631 48.9973 83.4996 48.4557 83.7726 47.979C84.05 47.5023 84.4248 47.1275 84.8971 46.8545C85.3738 46.5815 85.9155 46.445 86.5221 46.445C87.1288 46.445 87.6705 46.5815 88.1471 46.8545C88.6238 47.1275 88.9986 47.5023 89.2716 47.979C89.5446 48.4557 89.6811 48.9973 89.6811 49.604V53.036C89.6811 53.6427 89.5446 54.1843 89.2716 54.661C88.9986 55.1333 88.6238 55.5082 88.1471 55.7855C87.6705 56.0585 87.1288 56.195 86.5221 56.195ZM86.5221 55.0835C86.8905 55.0835 87.2241 54.9947 87.5231 54.817C87.8221 54.6393 88.0605 54.401 88.2381 54.102C88.4158 53.7987 88.5046 53.465 88.5046 53.101V49.5325C88.5046 49.1642 88.4158 48.8305 88.2381 48.5315C88.0605 48.2325 87.8221 47.9942 87.5231 47.8165C87.2241 47.6388 86.8905 47.55 86.5221 47.55C86.1581 47.55 85.8245 47.6388 85.5211 47.8165C85.2221 47.9942 84.9838 48.2325 84.8061 48.5315C84.6285 48.8305 84.5396 49.1642 84.5396 49.5325V53.101C84.5396 53.465 84.6285 53.7987 84.8061 54.102C84.9838 54.401 85.2221 54.6393 85.5211 54.817C85.8245 54.9947 86.1581 55.0835 86.5221 55.0835ZM94.6598 56.195C94.0531 56.195 93.5115 56.0585 93.0348 55.7855C92.5625 55.5082 92.1876 55.1333 91.9103 54.661C91.6373 54.1843 91.5008 53.6427 91.5008 53.036V49.604C91.5008 48.9973 91.6373 48.4557 91.9103 47.979C92.1876 47.5023 92.5625 47.1275 93.0348 46.8545C93.5115 46.5815 94.0531 46.445 94.6598 46.445C95.2665 46.445 95.8081 46.5815 96.2848 46.8545C96.7615 47.1275 97.1363 47.5023 97.4093 47.979C97.6823 48.4557 97.8188 48.9973 97.8188 49.604V53.036C97.8188 53.6427 97.6823 54.1843 97.4093 54.661C97.1363 55.1333 96.7615 55.5082 96.2848 55.7855C95.8081 56.0585 95.2665 56.195 94.6598 56.195ZM94.6598 55.0835C95.0281 55.0835 95.3618 54.9947 95.6608 54.817C95.9598 54.6393 96.1981 54.401 96.3758 54.102C96.5535 53.7987 96.6423 53.465 96.6423 53.101V49.5325C96.6423 49.1642 96.5535 48.8305 96.3758 48.5315C96.1981 48.2325 95.9598 47.9942 95.6608 47.8165C95.3618 47.6388 95.0281 47.55 94.6598 47.55C94.2958 47.55 93.9621 47.6388 93.6588 47.8165C93.3598 47.9942 93.1215 48.2325 92.9438 48.5315C92.7661 48.8305 92.6773 49.1642 92.6773 49.5325V53.101C92.6773 53.465 92.7661 53.7987 92.9438 54.102C93.1215 54.401 93.3598 54.6393 93.6588 54.817C93.9621 54.9947 94.2958 55.0835 94.6598 55.0835Z" fill="#999999"/>
</svg>
