<svg width="99" height="57" viewBox="0 0 99 57" fill="none" xmlns="http://www.w3.org/2000/svg">
<path d="M16.893 24.0562L0.9375 32.2044" stroke="#999999" stroke-width="0.367654" stroke-miterlimit="10"/>
<path d="M52.9039 46.4845L36.9648 54.6327" stroke="#999999" stroke-width="0.367654" stroke-miterlimit="10"/>
<path d="M52.9375 46.4515C53.1351 46.4515 68.7942 55.9715 68.7942 55.9715L52.9375 46.4515Z" fill="#999999"/>
<path d="M52.9375 46.4515C53.1351 46.4515 68.7942 55.9715 68.7942 55.9715" stroke="#999999" stroke-width="0.367654" stroke-miterlimit="10"/>
<path d="M77.0098 31.7417C77.1909 31.7417 92.8665 41.2783 92.8665 41.2783L77.0098 31.7417Z" fill="#999999"/>
<path d="M77.0098 31.7417C77.1909 31.7417 92.8665 41.2783 92.8665 41.2783" stroke="#999999" stroke-width="0.367654" stroke-miterlimit="10"/>
<path d="M5.38281 30.3368L40.2907 52.5171" stroke="#999999" stroke-width="0.367654" stroke-miterlimit="10"/>
<mask id="path-8-inside-1_310_204" fill="white">
<path d="M6.30614 32.5681C6.33044 32.5408 6.34388 32.5055 6.34388 32.4689C6.34388 32.4324 6.33044 32.397 6.30614 32.3698L5.43344 30.3699H7.70575C7.74505 30.3699 7.78274 30.3542 7.81053 30.3263C7.83833 30.2984 7.85394 30.2606 7.85394 30.2212C7.85394 30.1817 7.83833 30.1439 7.81053 30.116C7.78274 30.0881 7.74505 30.0724 7.70575 30.0724H5.20292C5.18496 30.0636 5.16526 30.0591 5.14529 30.0591C5.12532 30.0591 5.10561 30.0636 5.08766 30.0724C5.07146 30.0906 5.0625 30.1141 5.0625 30.1385C5.0625 30.1629 5.07146 30.1864 5.08766 30.2046L6.05915 32.502C6.05868 32.5315 6.06804 32.5603 6.08576 32.5838C6.10347 32.6074 6.12852 32.6243 6.15692 32.6319C6.18532 32.6395 6.21543 32.6373 6.24247 32.6258C6.26951 32.6142 6.29192 32.5939 6.30614 32.5681Z"/>
</mask>
<path d="M6.30614 32.5681C6.33044 32.5408 6.34388 32.5055 6.34388 32.4689C6.34388 32.4324 6.33044 32.397 6.30614 32.3698L5.43344 30.3699H7.70575C7.74505 30.3699 7.78274 30.3542 7.81053 30.3263C7.83833 30.2984 7.85394 30.2606 7.85394 30.2212C7.85394 30.1817 7.83833 30.1439 7.81053 30.116C7.78274 30.0881 7.74505 30.0724 7.70575 30.0724H5.20292C5.18496 30.0636 5.16526 30.0591 5.14529 30.0591C5.12532 30.0591 5.10561 30.0636 5.08766 30.0724C5.07146 30.0906 5.0625 30.1141 5.0625 30.1385C5.0625 30.1629 5.07146 30.1864 5.08766 30.2046L6.05915 32.502C6.05868 32.5315 6.06804 32.5603 6.08576 32.5838C6.10347 32.6074 6.12852 32.6243 6.15692 32.6319C6.18532 32.6395 6.21543 32.6373 6.24247 32.6258C6.26951 32.6142 6.29192 32.5939 6.30614 32.5681Z" fill="#999999"/>
<path d="M6.30614 32.5681L5.20818 31.5897L5.09797 31.7134L5.01803 31.8585L6.30614 32.5681ZM6.30614 32.3698L4.95827 32.958L5.0521 33.173L5.20818 33.3481L6.30614 32.3698ZM5.43344 30.3699V28.8993H3.18716L4.08557 30.9581L5.43344 30.3699ZM5.20292 30.0724L4.55757 31.3939L4.86301 31.543H5.20292V30.0724ZM5.08766 30.0724L4.44231 28.751L4.18225 28.878L3.9897 29.094L5.08766 30.0724ZM5.0625 30.1385H6.53311H5.0625ZM5.08766 30.2046L6.44215 29.6319L6.34742 29.4078L6.18561 29.2263L5.08766 30.2046ZM6.05915 32.502L7.52958 32.5256L7.53456 32.2152L7.41364 31.9292L6.05915 32.502ZM7.4041 33.5465C7.66887 33.2493 7.81449 32.8657 7.81449 32.4689H4.87326C4.87326 32.1454 4.99201 31.8323 5.20818 31.5897L7.4041 33.5465ZM7.81449 32.4689C7.81449 32.0723 7.66889 31.6886 7.4041 31.3914L5.20818 33.3481C4.99199 33.1055 4.87326 32.7925 4.87326 32.4689H7.81449ZM7.65401 31.7816L6.78131 29.7817L4.08557 30.9581L4.95827 32.958L7.65401 31.7816ZM5.43344 31.8405H7.70575V28.8993H5.43344V31.8405ZM7.70575 31.8405C8.13683 31.8405 8.54918 31.6686 8.85236 31.3643L6.76871 29.2884C7.0163 29.0399 7.35327 28.8993 7.70575 28.8993V31.8405ZM8.85236 31.3643C9.15534 31.0602 9.32455 30.6489 9.32455 30.2212H6.38333C6.38333 29.8724 6.52131 29.5367 6.76871 29.2884L8.85236 31.3643ZM9.32455 30.2212C9.32455 29.7934 9.15532 29.3821 8.85236 29.078L6.76871 31.1539C6.52133 30.9056 6.38333 30.57 6.38333 30.2212H9.32455ZM8.85236 29.078C8.54924 28.7738 8.13691 28.6018 7.70575 28.6018V31.543C7.35319 31.543 7.01625 31.4024 6.76871 31.1539L8.85236 29.078ZM7.70575 28.6018H5.20292V31.543H7.70575V28.6018ZM5.84827 28.751C5.62947 28.6441 5.38907 28.5885 5.14529 28.5885V31.5297C4.94144 31.5297 4.74045 31.4832 4.55757 31.3939L5.84827 28.751ZM5.14529 28.5885C4.9015 28.5885 4.6611 28.6441 4.44231 28.751L5.733 31.3939C5.55013 31.4832 5.34914 31.5297 5.14529 31.5297V28.5885ZM3.9897 29.094C3.73302 29.3821 3.59189 29.754 3.59189 30.1385H6.53311C6.53311 30.4742 6.40989 30.7991 6.18561 31.0508L3.9897 29.094ZM3.59189 30.1385C3.59189 30.5231 3.73306 30.895 3.9897 31.183L6.18561 29.2263C6.40986 29.4779 6.53311 29.8027 6.53311 30.1385H3.59189ZM3.73317 30.7774L4.70466 33.0748L7.41364 31.9292L6.44215 29.6319L3.73317 30.7774ZM4.58872 32.4784C4.58301 32.8345 4.69606 33.183 4.9108 33.4682L7.26072 31.6994C7.44003 31.9376 7.53435 32.2285 7.52958 32.5256L4.58872 32.4784ZM4.9108 33.4682C5.12565 33.7537 5.43021 33.9598 5.77667 34.0525L6.53717 31.2113C6.82683 31.2888 7.0813 31.4611 7.26072 31.6994L4.9108 33.4682ZM5.77667 34.0525C6.12317 34.1452 6.4907 34.119 6.82044 33.9781L5.6645 31.2735C5.94016 31.1557 6.24746 31.1337 6.53717 31.2113L5.77667 34.0525ZM6.82044 33.9781C7.15006 33.8372 7.42208 33.5902 7.59425 33.2777L5.01803 31.8585C5.16176 31.5976 5.38895 31.3913 5.6645 31.2735L6.82044 33.9781Z" fill="#999999" mask="url(#path-8-inside-1_310_204)"/>
<path d="M37.9526 52.5251C37.9466 52.5291 37.9409 52.5334 37.9355 52.5382C37.9082 52.5627 37.8908 52.5964 37.8867 52.6329M37.9526 52.5251L38.0937 52.7155H38.0349H38.0336H37.9526C37.9222 52.696 37.8991 52.6669 37.8867 52.6329M37.9526 52.5251V52.5573V52.609L37.8867 52.6329M37.9526 52.5251V52.6402L37.8867 52.6329M38.042 52.5766L38.0909 52.5007H38.2516L38.042 52.5766Z" fill="#999999" stroke="#999999" stroke-width="1.47061"/>
<path d="M87.0048 38.4522L63.3926 52.3852" stroke="#999999" stroke-width="0.367654" stroke-miterlimit="10"/>
<path d="M84.7078 38.3128L84.7174 38.3033L84.7078 38.3128ZM84.7078 38.3128L84.7394 38.3254L84.6839 38.27V38.3032L84.7078 38.3128Z" fill="#999999" stroke="#999999" stroke-width="1.47061"/>
<mask id="path-13-inside-2_310_204" fill="white">
<path d="M64.381 50.2033C64.4053 50.2306 64.4188 50.2659 64.4188 50.3025C64.4188 50.3391 64.4053 50.3744 64.381 50.4017L63.3766 52.3685L65.583 52.4511C65.6018 52.451 65.6204 52.4549 65.6376 52.4625C65.6547 52.4702 65.6701 52.4814 65.6825 52.4955C65.695 52.5096 65.7043 52.5262 65.7099 52.5442C65.7155 52.5622 65.7171 52.5812 65.7148 52.5999C65.7107 52.6364 65.6933 52.6701 65.666 52.6945C65.6386 52.7189 65.6032 52.7323 65.5666 52.7321L63.1461 52.6495C63.1253 52.6586 63.1029 52.6633 63.0802 52.6633C63.0576 52.6633 63.0351 52.6586 63.0144 52.6495C62.9978 52.6069 62.9978 52.5597 63.0144 52.5172L64.1834 50.2033C64.1958 50.1893 64.211 50.178 64.228 50.1703C64.2451 50.1626 64.2635 50.1586 64.2822 50.1586C64.3009 50.1586 64.3194 50.1626 64.3364 50.1703C64.3535 50.178 64.3687 50.1893 64.381 50.2033Z"/>
</mask>
<path d="M64.381 50.2033C64.4053 50.2306 64.4188 50.2659 64.4188 50.3025C64.4188 50.3391 64.4053 50.3744 64.381 50.4017L63.3766 52.3685L65.583 52.4511C65.6018 52.451 65.6204 52.4549 65.6376 52.4625C65.6547 52.4702 65.6701 52.4814 65.6825 52.4955C65.695 52.5096 65.7043 52.5262 65.7099 52.5442C65.7155 52.5622 65.7171 52.5812 65.7148 52.5999C65.7107 52.6364 65.6933 52.6701 65.666 52.6945C65.6386 52.7189 65.6032 52.7323 65.5666 52.7321L63.1461 52.6495C63.1253 52.6586 63.1029 52.6633 63.0802 52.6633C63.0576 52.6633 63.0351 52.6586 63.0144 52.6495C62.9978 52.6069 62.9978 52.5597 63.0144 52.5172L64.1834 50.2033C64.1958 50.1893 64.211 50.178 64.228 50.1703C64.2451 50.1626 64.2635 50.1586 64.2822 50.1586C64.3009 50.1586 64.3194 50.1626 64.3364 50.1703C64.3535 50.178 64.3687 50.1893 64.381 50.2033Z" fill="#999999"/>
<path d="M64.381 50.2033L63.2762 51.174L63.2831 51.1817L64.381 50.2033ZM64.4188 50.3025H62.9481H64.4188ZM64.381 50.4017L63.2831 49.4233L63.1573 49.5645L63.0713 49.7328L64.381 50.4017ZM63.3766 52.3685L62.0669 51.6996L61.0189 53.7518L63.3216 53.8381L63.3766 52.3685ZM65.583 52.4511L65.528 53.9207L65.5613 53.922L65.5946 53.9217L65.583 52.4511ZM65.7148 52.5999L64.2556 52.4167L64.2543 52.4269L64.2532 52.4371L65.7148 52.5999ZM65.5666 52.7321L65.5164 54.2019L65.5369 54.2026L65.5574 54.2027L65.5666 52.7321ZM63.1461 52.6495L63.1963 51.1797L62.8622 51.1683L62.556 51.3024L63.1461 52.6495ZM63.0802 52.6633V54.1339V52.6633ZM63.0144 52.6495L61.6437 53.1825L61.865 53.7515L62.4243 53.9965L63.0144 52.6495ZM63.0144 52.5172L61.7018 51.8541L61.6696 51.9177L61.6437 51.9842L63.0144 52.5172ZM64.1834 50.2033L63.0787 49.2327L62.9552 49.3732L62.8708 49.5402L64.1834 50.2033ZM63.2831 51.1817C63.0669 50.9391 62.9481 50.6261 62.9481 50.3025H65.8894C65.8894 49.9057 65.7437 49.5221 65.479 49.225L63.2831 51.1817ZM62.9481 50.3025C62.9481 49.979 63.0669 49.6659 63.2831 49.4233L65.479 51.38C65.7437 51.0829 65.8894 50.6992 65.8894 50.3025H62.9481ZM63.0713 49.7328L62.0669 51.6996L64.6863 53.0373L65.6907 51.0705L63.0713 49.7328ZM63.3216 53.8381L65.528 53.9207L65.6381 50.9815L63.4316 50.8989L63.3216 53.8381ZM65.5946 53.9217C65.403 53.9232 65.2134 53.8836 65.0385 53.8056L66.2366 51.1194C66.0275 51.0261 65.8006 50.9787 65.5715 50.9806L65.5946 53.9217ZM65.0385 53.8056C64.8636 53.7276 64.7079 53.6132 64.5816 53.4705L66.7835 51.5205C66.6322 51.3496 66.4458 51.2127 66.2366 51.1194L65.0385 53.8056ZM64.5816 53.4705C64.4552 53.3278 64.3609 53.1599 64.3048 52.9782L67.115 52.1102C67.0478 51.8924 66.9348 51.6914 66.7835 51.5205L64.5816 53.4705ZM64.3048 52.9782C64.2487 52.7966 64.2319 52.6051 64.2556 52.4167L67.1739 52.7831C67.2023 52.5572 67.1822 52.3278 67.115 52.1102L64.3048 52.9782ZM64.2532 52.4371C64.2892 52.1142 64.443 51.8148 64.6869 51.5972L66.645 53.7919C66.9436 53.5254 67.1323 53.1586 67.1763 52.7626L64.2532 52.4371ZM64.6869 51.5972C64.9308 51.3795 65.2474 51.2595 65.5757 51.2615L65.5574 54.2027C65.959 54.2052 66.3463 54.0584 66.645 53.7919L64.6869 51.5972ZM65.6168 51.2623L63.1963 51.1797L63.0959 54.1192L65.5164 54.2019L65.6168 51.2623ZM62.556 51.3024C62.7211 51.2301 62.8996 51.1926 63.0802 51.1926V54.1339C63.3062 54.1339 63.5295 54.087 63.7362 53.9965L62.556 51.3024ZM63.0802 51.1926C63.2608 51.1926 63.4393 51.2301 63.6045 51.3024L62.4243 53.9965C62.631 54.087 62.8543 54.1339 63.0802 54.1339V51.1926ZM64.385 52.1164C64.5018 52.4168 64.5018 52.7499 64.385 53.0503L61.6437 51.9842C61.4939 52.3696 61.4939 52.7971 61.6437 53.1825L64.385 52.1164ZM64.3269 53.1804L65.496 50.8665L62.8708 49.5402L61.7018 51.8541L64.3269 53.1804ZM65.2882 51.174C65.163 51.3166 65.0086 51.4312 64.835 51.5098L63.6211 48.8308C63.4134 48.9248 63.2286 49.062 63.0787 49.2327L65.2882 51.174ZM64.835 51.5098C64.6613 51.5885 64.4729 51.6292 64.2822 51.6292V48.688C64.0542 48.688 63.8288 48.7366 63.6211 48.8308L64.835 51.5098ZM64.2822 51.6292C64.0915 51.6292 63.9031 51.5884 63.7295 51.5098L64.9434 48.8308C64.7357 48.7367 64.5103 48.688 64.2822 48.688V51.6292ZM63.7295 51.5098C63.5559 51.4312 63.4015 51.3166 63.2763 51.174L65.4858 49.2327C65.3358 49.062 65.151 48.9248 64.9434 48.8308L63.7295 51.5098Z" fill="#999999" mask="url(#path-13-inside-2_310_204)"/>
<path d="M16.9414 15.5775V24.2712L53.1007 46.2532L76.9104 31.6922V22.9985L40.7512 1L16.9414 15.5775Z" stroke="#003064" stroke-width="0.588246" stroke-miterlimit="10"/>
<path d="M16.9414 15.4454L52.9689 37.3778L76.9104 22.9986" stroke="#003064" stroke-width="0.588246" stroke-miterlimit="10"/>
<path d="M52.9707 37.3777V46.2532" stroke="#003064" stroke-width="0.367654" stroke-miterlimit="10"/>
<path d="M18.3906 15.4453L40.6197 1.95856L75.5111 22.9324L53.1009 36.4191L18.3906 15.4453Z" stroke="#003064" stroke-width="0.367654" stroke-miterlimit="10"/>
<path d="M5.71 56.195C5.112 56.195 4.58333 56.0758 4.124 55.8375C3.66467 55.5948 3.305 55.259 3.045 54.83C2.785 54.401 2.655 53.9005 2.655 53.3285C2.655 52.7695 2.78717 52.2647 3.0515 51.814C3.32017 51.3633 3.72317 51.0167 4.2605 50.774L4.241 51.1965C3.80333 50.9842 3.4675 50.6852 3.2335 50.2995C2.9995 49.9095 2.8825 49.4783 2.8825 49.006C2.8825 48.4773 3.00383 48.0223 3.2465 47.641C3.48917 47.2597 3.82283 46.965 4.2475 46.757C4.67217 46.549 5.15967 46.445 5.71 46.445C6.26033 46.445 6.74783 46.549 7.1725 46.757C7.59716 46.965 7.93083 47.2597 8.1735 47.641C8.41616 48.0223 8.5375 48.4773 8.5375 49.006C8.5375 49.4783 8.427 49.9073 8.206 50.293C7.985 50.6743 7.64483 50.9755 7.1855 51.1965L7.1595 50.7805C7.69683 51.0145 8.09983 51.359 8.3685 51.814C8.6415 52.2647 8.778 52.7695 8.778 53.3285C8.778 53.9005 8.64583 54.401 8.3815 54.83C8.1215 55.259 7.75966 55.5948 7.296 55.8375C6.83667 56.0758 6.308 56.195 5.71 56.195ZM5.71 55.09C6.256 55.09 6.698 54.9405 7.036 54.6415C7.37833 54.3382 7.5495 53.9005 7.5495 53.3285C7.5495 52.7522 7.3805 52.3145 7.0425 52.0155C6.70883 51.7122 6.26467 51.5605 5.71 51.5605C5.15967 51.5605 4.7155 51.7122 4.3775 52.0155C4.04383 52.3145 3.877 52.7522 3.877 53.3285C3.877 53.9005 4.046 54.3382 4.384 54.6415C4.722 54.9405 5.164 55.09 5.71 55.09ZM5.71 50.449C6.18667 50.449 6.57233 50.3298 6.867 50.0915C7.16166 49.8488 7.309 49.487 7.309 49.006C7.309 48.525 7.16166 48.1653 6.867 47.927C6.57233 47.6843 6.18667 47.563 5.71 47.563C5.23767 47.563 4.852 47.6843 4.553 47.927C4.25833 48.1653 4.111 48.525 4.111 49.006C4.111 49.487 4.25833 49.8488 4.553 50.0915C4.852 50.3298 5.23767 50.449 5.71 50.449ZM13.6247 56.195C13.018 56.195 12.4763 56.0585 11.9997 55.7855C11.5273 55.5082 11.1525 55.1333 10.8752 54.661C10.6022 54.1843 10.4657 53.6427 10.4657 53.036V49.604C10.4657 48.9973 10.6022 48.4557 10.8752 47.979C11.1525 47.5023 11.5273 47.1275 11.9997 46.8545C12.4763 46.5815 13.018 46.445 13.6247 46.445C14.2313 46.445 14.773 46.5815 15.2497 46.8545C15.7263 47.1275 16.1012 47.5023 16.3742 47.979C16.6472 48.4557 16.7837 48.9973 16.7837 49.604V53.036C16.7837 53.6427 16.6472 54.1843 16.3742 54.661C16.1012 55.1333 15.7263 55.5082 15.2497 55.7855C14.773 56.0585 14.2313 56.195 13.6247 56.195ZM13.6247 55.0835C13.993 55.0835 14.3267 54.9947 14.6257 54.817C14.9247 54.6393 15.163 54.401 15.3407 54.102C15.5183 53.7987 15.6072 53.465 15.6072 53.101V49.5325C15.6072 49.1642 15.5183 48.8305 15.3407 48.5315C15.163 48.2325 14.9247 47.9942 14.6257 47.8165C14.3267 47.6388 13.993 47.55 13.6247 47.55C13.2607 47.55 12.927 47.6388 12.6237 47.8165C12.3247 47.9942 12.0863 48.2325 11.9087 48.5315C11.731 48.8305 11.6422 49.1642 11.6422 49.5325V53.101C11.6422 53.465 11.731 53.7987 11.9087 54.102C12.0863 54.401 12.3247 54.6393 12.6237 54.817C12.927 54.9947 13.2607 55.0835 13.6247 55.0835ZM21.7624 56.195C21.1557 56.195 20.614 56.0585 20.1374 55.7855C19.665 55.5082 19.2902 55.1333 19.0129 54.661C18.7399 54.1843 18.6034 53.6427 18.6034 53.036V49.604C18.6034 48.9973 18.7399 48.4557 19.0129 47.979C19.2902 47.5023 19.665 47.1275 20.1374 46.8545C20.614 46.5815 21.1557 46.445 21.7624 46.445C22.369 46.445 22.9107 46.5815 23.3874 46.8545C23.864 47.1275 24.2389 47.5023 24.5119 47.979C24.7849 48.4557 24.9214 48.9973 24.9214 49.604V53.036C24.9214 53.6427 24.7849 54.1843 24.5119 54.661C24.2389 55.1333 23.864 55.5082 23.3874 55.7855C22.9107 56.0585 22.369 56.195 21.7624 56.195ZM21.7624 55.0835C22.1307 55.0835 22.4644 54.9947 22.7634 54.817C23.0624 54.6393 23.3007 54.401 23.4784 54.102C23.656 53.7987 23.7449 53.465 23.7449 53.101V49.5325C23.7449 49.1642 23.656 48.8305 23.4784 48.5315C23.3007 48.2325 23.0624 47.9942 22.7634 47.8165C22.4644 47.6388 22.1307 47.55 21.7624 47.55C21.3984 47.55 21.0647 47.6388 20.7614 47.8165C20.4624 47.9942 20.224 48.2325 20.0464 48.5315C19.8687 48.8305 19.7799 49.1642 19.7799 49.5325V53.101C19.7799 53.465 19.8687 53.7987 20.0464 54.102C20.224 54.401 20.4624 54.6393 20.7614 54.817C21.0647 54.9947 21.3984 55.0835 21.7624 55.0835Z" fill="#999999"/>
<path d="M75.525 55.9935L75.5315 54.9535L79.685 51.216C80.0317 50.904 80.2635 50.6093 80.3805 50.332C80.5018 50.0503 80.5625 49.7622 80.5625 49.4675C80.5625 49.1078 80.4802 48.7828 80.3155 48.4925C80.1508 48.2022 79.9255 47.9725 79.6395 47.8035C79.3578 47.6345 79.0372 47.55 78.6775 47.55C78.3048 47.55 77.9733 47.6388 77.683 47.8165C77.3927 47.9898 77.163 48.2217 76.994 48.512C76.8293 48.8023 76.7492 49.1187 76.7535 49.461H75.5705C75.5705 48.8717 75.707 48.3517 75.98 47.901C76.253 47.446 76.6235 47.0907 77.0915 46.835C77.5638 46.575 78.099 46.445 78.697 46.445C79.2777 46.445 79.7977 46.5793 80.257 46.848C80.7163 47.1123 81.0782 47.4742 81.3425 47.9335C81.6112 48.3885 81.7455 48.9042 81.7455 49.4805C81.7455 49.8878 81.6935 50.241 81.5895 50.54C81.4898 50.839 81.3338 51.1163 81.1215 51.372C80.9092 51.6233 80.6427 51.892 80.322 52.178L76.8705 55.2785L76.721 54.8885H81.7455V55.9935H75.525ZM86.4596 56.195C85.853 56.195 85.3113 56.0585 84.8346 55.7855C84.3623 55.5082 83.9875 55.1333 83.7101 54.661C83.4371 54.1843 83.3006 53.6427 83.3006 53.036V49.604C83.3006 48.9973 83.4371 48.4557 83.7101 47.979C83.9875 47.5023 84.3623 47.1275 84.8346 46.8545C85.3113 46.5815 85.853 46.445 86.4596 46.445C87.0663 46.445 87.608 46.5815 88.0846 46.8545C88.5613 47.1275 88.9361 47.5023 89.2091 47.979C89.4821 48.4557 89.6186 48.9973 89.6186 49.604V53.036C89.6186 53.6427 89.4821 54.1843 89.2091 54.661C88.9361 55.1333 88.5613 55.5082 88.0846 55.7855C87.608 56.0585 87.0663 56.195 86.4596 56.195ZM86.4596 55.0835C86.828 55.0835 87.1616 54.9947 87.4606 54.817C87.7596 54.6393 87.998 54.401 88.1756 54.102C88.3533 53.7987 88.4421 53.465 88.4421 53.101V49.5325C88.4421 49.1642 88.3533 48.8305 88.1756 48.5315C87.998 48.2325 87.7596 47.9942 87.4606 47.8165C87.1616 47.6388 86.828 47.55 86.4596 47.55C86.0956 47.55 85.762 47.6388 85.4586 47.8165C85.1596 47.9942 84.9213 48.2325 84.7436 48.5315C84.566 48.8305 84.4771 49.1642 84.4771 49.5325V53.101C84.4771 53.465 84.566 53.7987 84.7436 54.102C84.9213 54.401 85.1596 54.6393 85.4586 54.817C85.762 54.9947 86.0956 55.0835 86.4596 55.0835ZM94.5973 56.195C93.9906 56.195 93.449 56.0585 92.9723 55.7855C92.5 55.5082 92.1251 55.1333 91.8478 54.661C91.5748 54.1843 91.4383 53.6427 91.4383 53.036V49.604C91.4383 48.9973 91.5748 48.4557 91.8478 47.979C92.1251 47.5023 92.5 47.1275 92.9723 46.8545C93.449 46.5815 93.9906 46.445 94.5973 46.445C95.204 46.445 95.7456 46.5815 96.2223 46.8545C96.699 47.1275 97.0738 47.5023 97.3468 47.979C97.6198 48.4557 97.7563 48.9973 97.7563 49.604V53.036C97.7563 53.6427 97.6198 54.1843 97.3468 54.661C97.0738 55.1333 96.699 55.5082 96.2223 55.7855C95.7456 56.0585 95.204 56.195 94.5973 56.195ZM94.5973 55.0835C94.9656 55.0835 95.2993 54.9947 95.5983 54.817C95.8973 54.6393 96.1356 54.401 96.3133 54.102C96.491 53.7987 96.5798 53.465 96.5798 53.101V49.5325C96.5798 49.1642 96.491 48.8305 96.3133 48.5315C96.1356 48.2325 95.8973 47.9942 95.5983 47.8165C95.2993 47.6388 94.9656 47.55 94.5973 47.55C94.2333 47.55 93.8996 47.6388 93.5963 47.8165C93.2973 47.9942 93.059 48.2325 92.8813 48.5315C92.7036 48.8305 92.6148 49.1642 92.6148 49.5325V53.101C92.6148 53.465 92.7036 53.7987 92.8813 54.102C93.059 54.401 93.2973 54.6393 93.5963 54.817C93.8996 54.9947 94.2333 55.0835 94.5973 55.0835Z" fill="#999999"/>
</svg>
